<?xml version="1.0" encoding="utf-8"?>
<!-- Generator: Adobe Illustrator 23.0.3, SVG Export Plug-In . SVG Version: 6.00 Build 0)  -->
<svg version="1.1" id="SIA_x5F_logo_xA0_Bild_1_" xmlns="http://www.w3.org/2000/svg" xmlns:xlink="http://www.w3.org/1999/xlink"
	 x="0px" y="0px" viewBox="0 0 632.3 607.5" style="enable-background:new 0 0 632.3 607.5;" xml:space="preserve">
<style type="text/css">
	.st0{fill:#FFFFFF;}
</style>
<g>
	<g>
		<path class="st0" d="M137.2,198c-4.6,9.5-8.9,19.2-11.7,30.4c1.8-1.2,2.9-1.8,4-2.6c10-7.6,21.3-12.5,33.7-14.3
			c2.4-0.4,5.1,0,7.6,0.6c2.7,0.7,3.5,2.8,2.2,5.4c-1,2-2.4,4-4,5.4c-10.3,8.9-22.1,14.5-35.5,16.5c-3.5,0.5-7.2-0.1-11.1-0.1
			c-2.2,9.9-4.3,20.4-3.8,31.4c0.7-0.9,1.3-1.8,2.1-2.7c8.3-11.4,18.9-19.7,32.1-24.7c2-0.7,4.2-1.1,6.2-1.1c3.4,0.1,5,2.6,3.5,5.5
			c-1.8,3.8-3.9,7.7-6.6,10.7c-8.1,9.2-17.6,16.2-29.4,20.3c-3.1,1-5.9,1.2-8.6-0.5c-1.7,4.6-0.5,26.1,2.1,35.9
			c0.7-1.1,1.3-1.8,1.8-2.8c5-11.2,12.6-20.4,22.4-28c2.3-1.8,5.1-3.3,7.9-4.3c4-1.5,6.6,0.5,6,4.6c-0.5,3.5-1.7,7.1-3.3,10.3
			c-5,9.9-12,18.3-20.9,25c-3.5,2.7-7.5,4.8-12.5,4.8c2.4,11.6,5.9,22.5,10.5,33.6c1.2-4.3,2.1-8.1,3.4-11.7
			c3.5-9.4,8.6-17.8,15.5-25c2.2-2.3,4.9-4.3,7.6-5.7c3.4-1.8,6.2-0.1,6.1,3.8c-0.1,4-0.7,8.2-2,12.1c-3.4,10.4-9,19.5-16.9,27.4
			c-2.8,2.8-5.9,5.5-11,5.4c4.8,10.7,10.3,20.5,16.9,29.7c1.2-7.1,2.1-13.8,3.8-20.4c2-7.8,5.3-15.3,10.4-21.7
			c1.3-1.7,3.2-3.3,5-4.5c2.7-1.7,4.6-1,5.7,2.1c0.6,1.7,1,3.5,1,5.4c0.1,14.5-4.5,27.6-12.7,39.3c-2,2.7-5,4.6-7.9,7.2
			c6.7,8.6,13.9,17.2,22.7,24.8c-0.1-7.2-0.5-13.9-0.2-20.6c0.2-7.7,2.2-15,5.4-22c0.7-1.6,1.7-3.3,2.8-4.6c3.2-4.2,6.5-3.8,8.6,1.1
			c1.2,3.1,2.1,6.5,2.3,9.6c0.9,10.5-0.6,20.6-4,30.5c-1.5,4.5-3.7,8.7-7.6,11.6c3.2,4.4,17.1,14.7,25.8,19.2
			c-1-4.5-2.1-8.8-2.6-13.2c-1.1-10.1-1.2-20.4,2.3-30.3c0.6-1.8,1.5-3.7,2.7-5.3c2.3-3.3,5.1-3.3,7.3,0.1c1.5,2.3,2.7,4.9,3.3,7.5
			c3.3,13.1,3.4,26.3-1.1,39.1c-0.9,2.3-2.7,4.3-4.2,6.4c-0.4,0.6-1.5,1.1-1.3,1.6c0.1,5-3.8,6.7-7.2,8.4
			c-11.5,5.5-23.7,7.6-36.4,6.8c-3.4-0.2-7-0.7-10.3-1.8c-4.9-1.7-5.3-4.8-1.3-8.1c5.1-4.4,11.5-6.1,17.8-7.7
			c9-2.3,18.3-2.8,27.8-2.7c-8.3-6.1-16.7-12.3-25.2-18.6c-10.7,8.2-23.6,8.6-36.6,7.9c-4.8-0.2-9.6-1.2-14.4-2.3
			c-3.1-0.7-6.8-1.8-7-5.5c-0.2-3.8,3.5-5,6.5-6.1c9.6-3.9,19.9-4.3,30.2-3.8c3.8,0.1,7.5,0.7,11.7,1.2
			c-7.1-8.1-13.9-15.9-20.5-23.6c-17.2,6.5-33.6,3.5-49.7-4.2c-1.6-0.7-3.1-2-4.3-3.3c-2.6-2.7-2.2-5.3,1.1-7c1.8-1,4-1.6,6-1.8
			c12.1-1.7,23.7,0.4,35.1,4.4c1.2,0.5,2.4,0.9,4.6,1.6c-4.8-8.6-9-16.2-13.3-23.9c-11.4,2.8-21.5-0.9-31.3-5.6
			c-5.4-2.7-10.3-6.5-15.3-9.9c-1.3-1-2.4-2.3-3.3-3.7c-2.8-4.2-1.6-7,3.5-7.5c6.8-0.7,13.4,0.7,19.7,3.4c6.2,2.7,12.2,6.2,18.2,9.4
			c0.7,0.4,1.6,0.7,2.8,1.3c-3.1-10.4-5.9-20.3-8.8-30.3c-14.8,0-26.4-7.8-37.1-17c-3.3-2.8-5.9-6.6-8.1-10.4c-2.4-4-0.5-7,4.3-6.7
			c3.5,0.2,7.2,1.1,10.6,2.3c9.4,3.5,17.7,8.7,24.9,15.9c0.9,0.9,1.8,1.5,3.4,2.8c-0.7-10.9-1.5-20.8-2.1-30.2
			c-3.1-0.7-6.2-0.9-8.7-2.2c-13.4-6.8-23.7-17-30.4-30.7c-1.3-2.7-2.3-5.7-0.2-8.2c2.3-2.7,5.5-1.1,8.1,0
			c10.4,4.5,18.2,12.2,25,20.9c2.6,3.2,4.5,6.8,7,10.5c1.6-10.7,3.2-21.3,4.9-31.9c-8.6-2.7-13.4-9.5-18.1-16.5
			c-4.9-7.3-8.8-15.3-10.4-24.2c0-0.2-0.2-0.6-0.2-0.9c-0.5-2.8-0.6-5.9,2-7.6c2.6-1.7,5.3-0.2,7.6,1.5c7.6,5.6,12.5,13.3,16.6,21.5
			c2.3,4.4,3.9,9.2,6,13.9c4.2-10,8.2-19.9,12.3-30.2c-4.2,0.2-6.6-2.2-8.8-5.3c-6.4-8.9-9.4-18.9-11.2-29.6
			c-0.9-4.9-1.5-9.6,0-14.4c1.6-5.1,4.8-6,8.7-2.2c4.8,4.8,7.3,10.7,9.6,16.9c3.3,8.8,5.1,17.8,4.5,27.2c0,0.4,0.1,0.7,0.2,1.3
			c6.5-9.6,12.9-19.2,19.5-29.1c-5.7-4.6-6.6-11.5-7-18.6c-0.6-10.3-0.2-20.4,3.7-30.2c0.9-2.1,2-4.2,3.4-5.9c2.2-2.7,5-2.7,6.7,0.4
			c1.7,2.9,2.9,6.4,3.5,9.6c1.7,10.4,1.3,20.6-1.2,30.9c-0.2,1-0.4,2.1-0.6,3.9c1.3-1,2.2-1.5,2.8-2.1c2.4-2.3,4.8-4.6,7.1-7.1
			c0.9-0.9,1.8-2,2-2.9c0.5-5.6,3.4-10,6.8-14.2c6.4-7.9,13.7-14.8,22.7-19.5c2.4-1.2,5-2.3,7.6-2.9c4.6-1.1,7.2,1.6,6,6.1
			c-0.4,1.3-1,2.6-1.6,3.8c-7.5,12.8-18,22.6-31.6,28.7c-2.6,1.1-5.7,1.1-8.7,1.7c-0.1-0.4-0.4-0.7-0.5-1.1
			c-4.9,5.1-9.8,10.3-15.1,15.9c6.1-0.4,11.2-1.3,16.4-1c9.9,0.7,19.7,2.2,28.6,7.1c1.7,1,3.4,2.1,4.8,3.5c2.4,2.6,2.1,5.1-1.2,6.6
			c-2.7,1.2-5.7,2.2-8.7,2.4c-12.3,1.2-24.3-0.4-35.7-5.5c-3.2-1.5-6-3.9-9.4-6.2c-6,7.1-11.5,15.5-17.1,25.2
			c3.5-1.2,6.2-2.2,8.9-2.9c11.5-2.8,23.1-4.4,34.7-1.1c2,0.6,4,1.5,5.7,2.7c2.2,1.6,2.3,3.5,0.4,5.5c-1.5,1.5-3.2,2.9-5.1,3.7
			c-13.7,5.7-27.8,7.3-42.4,3.8C141.9,200.4,139.7,199.1,137.2,198z"/>
		<path class="st0" d="M492.2,398.6c-6.7,7.7-13.4,15.4-20.8,23.8c3.2-0.4,5.7-0.5,8.3-1c10.9-1.8,21.5-0.2,32,2.9
			c2,0.6,3.9,1.7,5.6,2.8c3.3,2.3,3.4,5.1-0.1,7.2c-2.6,1.5-5.5,2.9-8.4,3.4c-12.7,2.1-25.5,2.2-38-1.7c-3.2-1-6.1-3.2-9.3-4.9
			c-7.8,5.7-16,11.7-24.1,17.7c0,0.4,0,0.6,0.1,1c3.8,0,7.7-0.2,11.5,0c9.8,0.6,19.3,2.7,28.1,7.2c1.8,1,3.7,2.2,5.1,3.8
			c2.1,2.1,1.7,4.8-0.9,6.1c-1.8,1-3.9,1.8-6,2.2c-13.7,1.7-27,0.2-39.8-5.1c-4.3-1.8-8.7-3.4-10-9c-0.5-2.1-3.7-3.4-4.4-5.5
			c-1.7-4.6-3.2-9.5-3.8-14.5c-1.1-9.4-1-18.9,2-28.1c0.6-2,1.5-4,2.6-5.9c2.3-3.7,5.9-3.9,7.8,0c2.1,4.2,3.7,8.7,4.5,13.2
			c2.1,11.2,1.5,22.5-2.3,33.3c-0.2,0.5-0.1,1.2-0.1,2.3c10.1-5.7,19.1-12.3,27.8-19.8c-8.1-7.1-9.8-16.5-11.2-26
			c-1.1-6.8-1.8-13.6-0.1-20.4c0.6-2.4,1.2-5,2.4-7.3c1.5-3.1,4.5-3.5,6.6-1c2.2,2.8,4.2,6,5.4,9.4c4.6,12.6,5.4,25.5,2.8,39.7
			c9.4-8.2,16.9-16.6,23.9-26c-9.3-4-12.6-12.6-16-20.8c-3.2-7.6-5.3-15.6-5.1-23.9c0-2,0.2-4,0.7-5.9c1-3.4,3.8-4.5,6.7-2.3
			c1.8,1.3,3.5,2.9,4.8,4.8c8.2,12.1,12.8,25.4,12.6,40.3c0,0.2,0.2,0.5,0.6,1.5c7.1-9.2,12.2-19.1,17.2-29.6
			c-7.3-1.1-11.6-6.1-15.5-11.2c-6.5-8.4-11.7-17.5-13.8-28c-0.5-2.2-0.6-4.5-0.4-6.8c0.4-3.4,2.8-4.9,5.7-3.2
			c3.1,1.7,6,3.7,8.3,6.2c8.7,9.4,14.8,20.4,17.6,33.1c0.1,0.6,0.2,1.2,0.4,1.7c0,0.1,0.1,0.2,0.7,0.7c4.6-10.5,7.7-21.1,10.3-32.1
			c-13.9-3.1-22-13.2-29.3-23.9c-2.7-4-4.5-8.6-6.6-12.9c-0.4-0.9-0.6-1.7-0.7-2.6c-0.6-5.4,2.1-7.8,7-5.5c4,2,7.9,4.5,11.4,7.6
			c7.9,7.1,14.4,15.3,18.4,25.3c0.2,0.7,0.7,1.3,1.6,2.8c2.2-12.8,3.1-24.7,2.8-37c-4.9,2.6-9.2,1.2-13.4-0.7
			c-11.6-5.3-21.5-12.8-28.9-23.2c-1.5-2.1-2.6-4.5-3.2-7c-0.9-3.3,0.6-5.1,4-4.9c2.9,0.2,6.1,0.7,8.8,2
			c11.7,5.3,21.6,13.1,29.2,23.6c0.7,1,1.5,1.8,2.7,3.4c0.1-11.6-2.2-22-4.4-32.4c-17.2,2.6-31-4.6-44.1-14
			c-2.4-1.7-4.5-4.2-6.1-6.7c-2.1-3.2-1.1-5.4,2.7-6.5c4.8-1.5,9.4-0.1,13.9,1.1c10.6,2.8,20.3,7.6,28.7,14.7c0.5,0.4,1,0.6,2.2,1.2
			c-3.2-11.2-7.3-21.3-12.3-31.1c-4.8,3.4-10,4.5-15.5,4.8c-11.8,0.6-23.5-0.2-34.3-5.6c-2.6-1.3-5.6-2.8-5.5-6.1
			c0.1-3.4,3.5-4.3,6.2-5.1c7.6-2.3,15.4-2.6,23.1-1.5c6.8,1,13.7,2.7,20.9,4.3c-4.5-8.8-10.4-16.9-16.7-24.9
			c-7.3,8.4-17.2,10.1-27.1,11.8c-7,1.2-13.9,1.7-20.9,0c-1.5-0.4-3.1-0.6-4.4-1.2c-4.5-2.1-5-5.1-1.2-8.4c4.2-3.5,9.2-5.3,14.3-6.6
			c10-2.6,20-3.8,30.3-2c0.7,0.1,1.5,0,3.3,0c-4.5-6.1-9.9-10.4-14.7-15.6c-5.7,1.6-10.6-0.7-15.1-3.5c-9.2-5.6-17.1-12.7-23.1-21.7
			c-1.7-2.7-3.2-5.6-4.2-8.6c-1.2-3.4,0.7-5.9,4.4-5.5c2.8,0.2,5.7,1.1,8.2,2.4c10.9,5.7,19.8,13.7,26.4,24.1
			c1.8,2.8,2.6,6.4,3.8,9.6c0.2,0.7,0.2,1.6,0.7,2.1c3.4,3.4,6.8,6.8,10.3,10.3c0.2-0.1,0.6-0.2,0.9-0.5c-0.5-2.4-1-4.9-1.3-7.3
			c-1.7-10.6-2.2-21.3,1.1-31.6c1-2.9,2.2-5.7,5.5-7c3.5,0.9,5.1,3.7,6.2,6.6c5.4,13.9,6,28.2,2.2,42.6c-0.7,2.8-2.8,5.1-4.5,8.1
			c6,8.9,12.5,18.4,19.1,28.2c0.4-4.5,0.4-9.2,1.1-13.7c1.6-10.5,5.1-20.4,11.2-29.2c1.7-2.4,3.9-5.7,7.7-4.4
			c3.7,1.2,3.9,4.9,3.9,8.1c0.2,14.7-3.8,28.2-12.1,40.4c-2.1,3.1-4.6,5.3-8.7,4.9c4.2,10.1,8.2,20,12.5,30.7c0.6-1.7,1.2-2.8,1.6-4
			c3.8-11,9.4-20.8,17.7-28.9c1.6-1.6,3.5-2.9,5.5-4c4-2.3,7.2-0.7,7.1,3.9c-0.1,3.8-0.9,7.6-2.1,11.1c-3.5,10.1-8.8,19.4-16.5,27.1
			c-2.8,2.8-6.5,4.8-10.1,7.5c1.5,9.4,3.1,19.7,4.8,30.9c1.2-1.8,2-3.1,2.8-4.4c7.1-11.1,16-20.3,28-26.3c2.9-1.5,6.5-2.9,9-0.6
			c2.6,2.4,1.1,6.1-0.4,8.9c-6.5,12.7-16.2,22.4-28.7,29.2c-2.9,1.6-6.6,2-10.1,3.1c-0.6,9.3-1.3,19.2-2.1,30c1.6-1.3,2.6-2,3.4-2.7
			c7.6-7.6,16.5-13.1,26.5-16.5c2.9-1,6.2-1.6,9.4-1.6c4.4-0.1,6.2,2.9,3.8,6.7c-2.4,3.9-5.4,7.8-8.9,11
			c-8.4,7.5-17.8,13.3-29.1,15.6c-2.3,0.5-4.8,0.6-7.3,1c-2.9,9.8-5.9,19.7-8.9,30.3c1.3-0.7,2.2-1.1,2.9-1.7
			c9.8-6.6,20.2-11.2,31.9-12.7c2.6-0.4,5.3-0.1,7.7,0.5c3.2,0.7,4.3,3.2,2.3,5.9c-2.2,3.1-4.9,6-7.8,8.2
			c-9.3,7-19.8,11.4-31.3,13.1c-3.5,0.5-7.2-0.1-11.6-0.2c-3.9,7.1-8.3,14.9-12.7,22.8c7.3-1.8,14.3-4,21.4-5.3
			c7.2-1.2,14.7-1.6,21.7,0.7c1.8,0.6,3.9,2.1,4.6,3.8c1.1,2.4-0.9,4.4-2.8,5.6c-3.8,2.1-7.7,4.4-11.8,5.7
			c-10.4,3.3-21,5.1-31.9,2.9C497.8,400.9,495.2,399.6,492.2,398.6z"/>
		<path class="st0" d="M269.5,304.5c0-2.3,0-4.2,0-6.5c-17.6-7.5-35.4-14.9-53.5-22.5c0-15.3,0-30.7,0-46.2c25.8,0,51.3,0,77.3,0
			c0,8.3,0,16.6,0,25.2c-7.5,0-14.7,0-22.2,0c-0.4-0.9-0.6-1.8-1.1-2.9c-10.1,0-20.3,0-30.7,0c0,2.3,0,4.4,0,7.1
			c17.8,7.5,35.9,15,54,22.6c0,15.5,0,30.7,0,46.2c-25.9,0-51.4,0-77.3,0c0-8.6,0-16.9,0-25.5c7.5,0,15,0,23,0
			c0.2,0.6,0.6,1.6,1,2.7C249.7,304.5,259.4,304.5,269.5,304.5z"/>
		<path class="st0" d="M354.3,329.7c0-7.3,0-14.3,0-21.5c1.6-0.1,3.1-0.4,4.9-0.6c9.9-26.4,19.8-52.9,29.7-79.3c6.6,0,12.8,0,19.4,0
			c9.8,26,19.4,52.2,29.2,78.4c1.3,0.2,2.6,0.4,4.3,0.6c0,7.3,0,14.7,0,22.4C412.6,329.7,383.7,329.7,354.3,329.7z M381.9,306.1
			c7.9,1.1,28.7,0.7,31.9-0.6c-5-12.7-10-25.5-15-38.2c-0.4,0-0.7,0.1-1.1,0.1C392.4,280.1,387.2,292.9,381.9,306.1z"/>
		<path class="st0" d="M366.7,425.8c3.5,3.4,6.7,6.5,9.5,9.8c0.6,0.6,0.2,2.6-0.2,3.7c-0.6,1.2-1.7,2.2-2.8,2.9
			c-10.3,7.3-17.3,17.8-26.1,26.6c-1,1-1.5,2.7-1.5,4c-0.1,5-2,9-5.6,12.6c-12.8,12.5-25.5,24.9-38.2,37.4
			c-4.4,4.3-6.6,4.4-11.2,0.1c-4-3.7-7.8-7.7-11.5-11.7c-4.3-4.8-4-7.3,0.5-11.7c8.5-8.3,17.1-16.5,25.7-24.7
			c4.2-4,8.4-7.9,12.5-12.1c3.5-3.5,7.3-5.6,12.6-5.5c1.7,0,3.9-0.9,5.3-2c7.7-6.5,15.3-13.2,22.7-19.9c1.1-1,1.8-2.3,2.9-3.4
			C362.7,430,364.4,428.1,366.7,425.8z"/>
		<path class="st0" d="M337,305c0.9,0.2,2,0.6,3.2,1c0,7.1,0,14,0,21.4c-10.6,0-21,0-31.6,0c0-7.3,0-14.4,0-21.7
			c1.1-0.2,2.2-0.6,3.3-0.9c0-17.7,0-35.3,0-53c-1-0.4-2.1-0.6-3.3-1c0-7,0-13.9,0-21.3c10.5,0,21,0,31.6,0c0,7.2,0,14.2,0,21.4
			c-0.9,0.2-1.7,0.6-3.1,1.1C337,269.5,337,287.1,337,305z"/>
		<path class="st0" d="M328.6,500.7c4-4.2,7.7-8.3,11.7-12.2c3.7-3.4,6.5-7.2,7.5-12.8c1.5,1.3,2.8,2.3,3.9,3.4
			c7.6,7.1,15.1,14,22.7,21.1c4.4,4.2,4.6,6.7,0.7,11.4c-3.9,4.5-7.9,8.8-12.2,12.9c-3.2,3.2-6.5,3.1-9.6,0
			c-8.2-7.6-16.1-15.3-24.2-23C328.9,501.3,328.6,500.8,328.6,500.7z"/>
		<path class="st0" d="M274.9,439.5c3.5-3.9,6.8-7.3,10.6-11.5c5.6,5.3,10.9,10.4,16.4,15.3c5.6,5,11.4,9.6,16,13.6
			c-3.7,4.4-7.5,8.9-11.5,13.7c-6.4-6.6-12.1-12.9-18.1-18.9c-2.6-2.6-5.5-4.6-8.3-7C278.3,443.2,276.8,441.5,274.9,439.5z"/>
	</g>
	<g>
		<path class="st0" d="M289.4,101.9v6.1h-4.6v-1.6H282v3.1h5v4.6c-0.6,0-1.1,0-1.5,0c-0.4,0-0.7,0-1,0s-0.6,0-1,0
			c-0.4,0-0.9,0-1.5,0v3.1h2.8v-1.5h4.6v6.1H276v-4.6h1.5v-10.7H276v-4.6h13.4V101.9z"/>
		<path class="st0" d="M294.4,101.9h6.2l2.9,2.8v3.2h-4.6v-1.5h-2.8v3.1h4.3l3.1,3.2v6.4l-2.9,2.7h-6.2l-3.1-2.4v-3.7h4.6v1.5h2.8
			v-2.9H295l-3.8-3.2v-6.2L294.4,101.9z"/>
		<path class="st0" d="M305.2,101.8h13.6v7h-3.4v-2.3h-1.1v10.6h1.5v4.6h-7.5v-4.6h1.5v-10.6h-1v2.3h-3.4v-7H305.2z"/>
		<path class="st0" d="M322.4,121.7h-4.6v-4.6h4.6V121.7z"/>
		<path class="st0" d="M339,117.1v4.6h-7.5v-4.6h1.5v-10.6h-1.5v-4.6h6.1v15.3H339z"/>
		<path class="st0" d="M345.5,115.7v1.5h2.8v-2.9h-4.5l-3.1-2.4v-7.1l2.9-2.7h6.2l3.1,2.4v14.4l-3.1,2.9h-6.2l-2.9-2.9v-3.2H345.5z
			 M348.3,109.5v-2.9h-2.8v2.9H348.3z"/>
		<path class="st0" d="M359.5,115.7v1.5h2.8v-2.9h-4.4l-3.1-2.4v-7.1l2.9-2.7h6.2l3.1,2.4v14.4l-3.1,2.9h-6.2l-2.9-2.9v-3.2H359.5z
			 M362.3,109.5v-2.9h-2.8v2.9H362.3z"/>
		<path class="st0" d="M381,104.7V119l-2.9,2.7h-6.2l-3.1-2.4v-14.4l3.1-2.9h6.2L381,104.7z M376.4,106.4h-2.8v10.6h2.8V106.4z"/>
	</g>
</g>
</svg>
