<?xml version="1.0" encoding="utf-8"?>
<!-- Generator: Adobe Illustrator 23.0.3, SVG Export Plug-In . SVG Version: 6.00 Build 0)  -->
<svg version="1.1" id="SIA_x5F_logo_xA0_Bild_1_" xmlns="http://www.w3.org/2000/svg" xmlns:xlink="http://www.w3.org/1999/xlink"
	 x="0px" y="0px" viewBox="0 0 632.3 607.5" style="enable-background:new 0 0 632.3 607.5;" xml:space="preserve">
<style type="text/css">
	.st0{fill:#FCFCFC;}
</style>
<g>
	<g>
		<path class="st0" d="M170.9,219c-3.8,7.8-7.3,15.7-9.6,24.9c1.5-1,2.4-1.5,3.3-2.1c8.2-6.2,17.4-10.2,27.6-11.7
			c2-0.3,4.2,0,6.2,0.5c2.2,0.6,2.9,2.3,1.8,4.4c-0.8,1.6-2,3.3-3.3,4.4c-8.4,7.3-18.1,11.9-29.1,13.5c-2.9,0.4-5.9-0.1-9.1-0.1
			c-1.8,8.1-3.5,16.7-3.1,25.7c0.6-0.7,1.1-1.5,1.7-2.2c6.8-9.3,15.5-16.1,26.3-20.2c1.6-0.6,3.4-0.9,5.1-0.9
			c2.8,0.1,4.1,2.1,2.9,4.5c-1.5,3.1-3.2,6.3-5.4,8.8c-6.6,7.5-14.4,13.3-24.1,16.6c-2.5,0.8-4.8,1-7-0.4
			c-1.4,3.8-0.4,21.4,1.7,29.4c0.6-0.9,1.1-1.5,1.5-2.3c4.1-9.2,10.3-16.7,18.3-22.9c1.9-1.5,4.2-2.7,6.5-3.5
			c3.3-1.2,5.4,0.4,4.9,3.8c-0.4,2.9-1.4,5.8-2.7,8.4c-4.1,8.1-9.8,15-17.1,20.5c-2.9,2.2-6.1,3.9-10.2,3.9c2,9.5,4.8,18.4,8.6,27.5
			c1-3.5,1.7-6.6,2.8-9.6c2.9-7.7,7-14.6,12.7-20.5c1.8-1.9,4-3.5,6.2-4.7c2.8-1.5,5.1-0.1,5,3.1c-0.1,3.3-0.6,6.7-1.6,9.9
			c-2.8,8.5-7.4,16-13.8,22.4c-2.3,2.3-4.8,4.5-9,4.4c3.9,8.8,8.4,16.8,13.8,24.3c1-5.8,1.7-11.3,3.1-16.7
			c1.6-6.4,4.3-12.5,8.5-17.8c1.1-1.4,2.6-2.7,4.1-3.7c2.2-1.4,3.8-0.8,4.7,1.7c0.5,1.4,0.8,2.9,0.8,4.4
			c0.1,11.9-3.7,22.6-10.4,32.2c-1.6,2.2-4.1,3.8-6.5,5.9c5.5,7,11.4,14.1,18.6,20.3c-0.1-5.9-0.4-11.4-0.2-16.9
			c0.2-6.3,1.8-12.3,4.4-18c0.6-1.3,1.4-2.7,2.3-3.8c2.6-3.4,5.3-3.1,7,0.9c1,2.5,1.7,5.3,1.9,7.9c0.7,8.6-0.5,16.9-3.3,25
			c-1.2,3.7-3,7.1-6.2,9.5c2.6,3.6,14,12,21.1,15.7c-0.8-3.7-1.7-7.2-2.1-10.8c-0.9-8.3-1-16.7,1.9-24.8c0.5-1.5,1.2-3,2.2-4.3
			c1.9-2.7,4.2-2.7,6,0.1c1.2,1.9,2.2,4,2.7,6.1c2.7,10.7,2.8,21.5-0.9,32c-0.7,1.9-2.2,3.5-3.4,5.2c-0.3,0.5-1.2,0.9-1.1,1.3
			c0.1,4.1-3.1,5.5-5.9,6.9c-9.4,4.5-19.4,6.2-29.8,5.6c-2.8-0.2-5.7-0.6-8.4-1.5c-4-1.4-4.3-3.9-1.1-6.6c4.2-3.6,9.4-5,14.6-6.3
			c7.4-1.9,15-2.3,22.8-2.2c-6.8-5-13.7-10.1-20.6-15.2c-8.8,6.7-19.3,7-30,6.5c-3.9-0.2-7.9-1-11.8-1.9c-2.5-0.6-5.6-1.5-5.7-4.5
			c-0.2-3.1,2.9-4.1,5.3-5c7.9-3.2,16.3-3.5,24.7-3.1c3.1,0.1,6.1,0.6,9.6,1c-5.8-6.6-11.4-13-16.8-19.3
			c-14.1,5.3-27.5,2.9-40.7-3.4c-1.3-0.6-2.5-1.6-3.5-2.7c-2.1-2.2-1.8-4.3,0.9-5.7c1.5-0.8,3.3-1.3,4.9-1.5
			c9.9-1.4,19.4,0.3,28.7,3.6c1,0.4,2,0.7,3.8,1.3c-3.9-7-7.4-13.3-10.9-19.6c-9.3,2.3-17.6-0.7-25.6-4.6c-4.4-2.2-8.4-5.3-12.5-8.1
			c-1.1-0.8-2-1.9-2.7-3c-2.3-3.4-1.3-5.7,2.9-6.1c5.6-0.6,11,0.6,16.1,2.8c5.1,2.2,10,5.1,14.9,7.7c0.6,0.3,1.3,0.6,2.3,1.1
			c-2.5-8.5-4.8-16.6-7.2-24.8c-12.1,0-21.6-6.4-30.4-13.9c-2.7-2.3-4.8-5.4-6.6-8.5c-2-3.3-0.4-5.7,3.5-5.5
			c2.9,0.2,5.9,0.9,8.7,1.9c7.7,2.9,14.5,7.1,20.4,13c0.7,0.7,1.5,1.2,2.8,2.3c-0.6-8.9-1.2-17-1.7-24.7c-2.5-0.6-5.1-0.7-7.1-1.8
			c-11-5.6-19.4-13.9-24.9-25.1c-1.1-2.2-1.9-4.7-0.2-6.7c1.9-2.2,4.5-0.9,6.6,0c8.5,3.7,14.9,10,20.5,17.1c2.1,2.6,3.7,5.6,5.7,8.6
			c1.3-8.8,2.6-17.4,4-26.1c-7-2.2-11-7.8-14.8-13.5c-4-6-7.2-12.5-8.5-19.8c0-0.2-0.2-0.5-0.2-0.7c-0.4-2.3-0.5-4.8,1.6-6.2
			s4.3-0.2,6.2,1.2c6.2,4.6,10.2,10.9,13.6,17.6c1.9,3.6,3.2,7.5,4.9,11.4c3.4-8.2,6.7-16.3,10.1-24.7c-3.4,0.2-5.4-1.8-7.2-4.3
			c-5.2-7.3-7.7-15.5-9.2-24.2c-0.7-4-1.2-7.9,0-11.8c1.3-4.2,3.9-4.9,7.1-1.8c3.9,3.9,6,8.8,7.9,13.8c2.7,7.2,4.2,14.6,3.7,22.3
			c0,0.3,0.1,0.6,0.2,1.1c5.3-7.9,10.6-15.7,16-23.8c-4.7-3.8-5.4-9.4-5.7-15.2c-0.5-8.4-0.2-16.7,3-24.7c0.7-1.7,1.6-3.4,2.8-4.8
			c1.8-2.2,4.1-2.2,5.5,0.3c1.4,2.4,2.4,5.2,2.9,7.9c1.4,8.5,1.1,16.9-1,25.3c-0.2,0.8-0.3,1.7-0.5,3.2c1.1-0.8,1.8-1.2,2.3-1.7
			c2-1.9,3.9-3.8,5.8-5.8c0.7-0.7,1.5-1.6,1.6-2.4c0.4-4.6,2.8-8.2,5.6-11.6c5.2-6.5,11.2-12.1,18.6-16c2-1,4.1-1.9,6.2-2.4
			c3.8-0.9,5.9,1.3,4.9,5c-0.3,1.1-0.8,2.1-1.3,3.1c-6.1,10.5-14.7,18.5-25.9,23.5c-2.1,0.9-4.7,0.9-7.1,1.4
			c-0.1-0.3-0.3-0.6-0.4-0.9c-4,4.2-8,8.4-12.4,13c5-0.3,9.2-1.1,13.4-0.8c8.1,0.6,16.1,1.8,23.4,5.8c1.4,0.8,2.8,1.7,3.9,2.9
			c2,2.1,1.7,4.2-1,5.4c-2.2,1-4.7,1.8-7.1,2c-10.1,1-19.9-0.3-29.2-4.5c-2.6-1.2-4.9-3.2-7.7-5.1c-4.9,5.8-9.4,12.7-14,20.6
			c2.9-1,5.1-1.8,7.3-2.4c9.4-2.3,18.9-3.6,28.4-0.9c1.6,0.5,3.3,1.2,4.7,2.2c1.8,1.3,1.9,2.9,0.3,4.5c-1.2,1.2-2.6,2.4-4.2,3
			c-11.2,4.7-22.8,6-34.7,3.1C174.7,220.9,172.9,219.9,170.9,219z"/>
		<path class="st0" d="M461.5,383.2c-5.5,6.3-11,12.6-17,19.5c2.6-0.3,4.7-0.4,6.8-0.8c8.9-1.5,17.6-0.2,26.2,2.4
			c1.6,0.5,3.2,1.4,4.6,2.3c2.7,1.9,2.8,4.2-0.1,5.9c-2.1,1.2-4.5,2.4-6.9,2.8c-10.4,1.7-20.9,1.8-31.1-1.4c-2.6-0.8-5-2.6-7.6-4
			c-6.4,4.7-13.1,9.6-19.7,14.5c0,0.3,0,0.5,0.1,0.8c3.1,0,6.3-0.2,9.4,0c8,0.5,15.8,2.2,23,5.9c1.5,0.8,3,1.8,4.2,3.1
			c1.7,1.7,1.4,3.9-0.7,5c-1.5,0.8-3.2,1.5-4.9,1.8c-11.2,1.4-22.1,0.2-32.6-4.2c-3.5-1.5-7.1-2.8-8.2-7.4c-0.4-1.7-3-2.8-3.6-4.5
			c-1.4-3.8-2.6-7.8-3.1-11.9c-0.9-7.7-0.8-15.5,1.6-23c0.5-1.6,1.2-3.3,2.1-4.8c1.9-3,4.8-3.2,6.4,0c1.7,3.4,3,7.1,3.7,10.8
			c1.7,9.2,1.2,18.4-1.9,27.3c-0.2,0.4-0.1,1-0.1,1.9c8.3-4.7,15.6-10.1,22.8-16.2c-6.6-5.8-8-13.5-9.2-21.3
			c-0.9-5.6-1.5-11.1-0.1-16.7c0.5-2,1-4.1,2-6c1.2-2.5,3.7-2.9,5.4-0.8c1.8,2.3,3.4,4.9,4.4,7.7c3.8,10.3,4.4,20.9,2.3,32.5
			c7.7-6.7,13.8-13.6,19.6-21.3c-7.6-3.3-10.3-10.3-13.1-17c-2.6-6.2-4.3-12.8-4.2-19.6c0-1.6,0.2-3.3,0.6-4.8
			c0.8-2.8,3.1-3.7,5.5-1.9c1.5,1.1,2.9,2.4,3.9,3.9c6.7,9.9,10.5,20.8,10.3,33c0,0.2,0.2,0.4,0.5,1.2c5.8-7.5,10-15.6,14.1-24.2
			c-6-0.9-9.5-5-12.7-9.2c-5.3-6.9-9.6-14.3-11.3-22.9c-0.4-1.8-0.5-3.7-0.3-5.6c0.3-2.8,2.3-4,4.7-2.6c2.5,1.4,4.9,3,6.8,5.1
			c7.1,7.7,12.1,16.7,14.4,27.1c0.1,0.5,0.2,1,0.3,1.4c0,0.1,0.1,0.2,0.6,0.6c3.8-8.6,6.3-17.3,8.4-26.3c-11.4-2.5-18-10.8-24-19.6
			c-2.2-3.3-3.7-7-5.4-10.6c-0.3-0.7-0.5-1.4-0.6-2.1c-0.5-4.4,1.7-6.4,5.7-4.5c3.3,1.6,6.5,3.7,9.3,6.2
			c6.5,5.8,11.8,12.5,15.1,20.7c0.2,0.6,0.6,1.1,1.3,2.3c1.8-10.5,2.5-20.2,2.3-30.3c-4,2.1-7.5,1-11-0.6
			c-9.5-4.3-17.6-10.5-23.7-19c-1.2-1.7-2.1-3.7-2.6-5.7c-0.7-2.7,0.5-4.2,3.3-4c2.4,0.2,5,0.6,7.2,1.6c9.6,4.3,17.7,10.7,23.9,19.3
			c0.6,0.8,1.2,1.5,2.2,2.8c0.1-9.5-1.8-18-3.6-26.5c-14.1,2.1-25.4-3.8-36.1-11.5c-2-1.4-3.7-3.4-5-5.5c-1.7-2.6-0.9-4.4,2.2-5.3
			c3.9-1.2,7.7-0.1,11.4,0.9c8.7,2.3,16.6,6.2,23.5,12c0.4,0.3,0.8,0.5,1.8,1c-2.6-9.2-6-17.4-10.1-25.5c-3.9,2.8-8.2,3.7-12.7,3.9
			c-9.7,0.5-19.2-0.2-28.1-4.6c-2.1-1.1-4.6-2.3-4.5-5c0.1-2.8,2.9-3.5,5.1-4.2c6.2-1.9,12.6-2.1,18.9-1.2
			c5.6,0.8,11.2,2.2,17.1,3.5c-3.7-7.2-8.5-13.8-13.7-20.4c-6,6.9-14.1,8.3-22.2,9.7c-5.7,1-11.4,1.4-17.1,0c-1.2-0.3-2.5-0.5-3.6-1
			c-3.7-1.7-4.1-4.2-1-6.9c3.4-2.9,7.5-4.3,11.7-5.4c8.2-2.1,16.4-3.1,24.8-1.6c0.6,0.1,1.2,0,2.7,0c-3.7-5-8.1-8.5-12-12.8
			c-4.7,1.3-8.7-0.6-12.4-2.9c-7.5-4.6-14-10.4-18.9-17.8c-1.4-2.2-2.6-4.6-3.4-7c-1-2.8,0.6-4.8,3.6-4.5c2.3,0.2,4.7,0.9,6.7,2
			c8.9,4.7,16.2,11.2,21.6,19.7c1.5,2.3,2.1,5.2,3.1,7.9c0.2,0.6,0.2,1.3,0.6,1.7c2.8,2.8,5.6,5.6,8.4,8.4c0.2-0.1,0.5-0.2,0.7-0.4
			c-0.4-2-0.8-4-1.1-6c-1.4-8.7-1.8-17.4,0.9-25.9c0.8-2.4,1.8-4.7,4.5-5.7c2.9,0.7,4.2,3,5.1,5.4c4.4,11.4,4.9,23.1,1.8,34.9
			c-0.6,2.3-2.3,4.2-3.7,6.6c4.9,7.3,10.2,15.1,15.6,23.1c0.3-3.7,0.3-7.5,0.9-11.2c1.3-8.6,4.2-16.7,9.2-23.9
			c1.4-2,3.2-4.7,6.3-3.6c3,1,3.2,4,3.2,6.6c0.2,12-3.1,23.1-9.9,33.1c-1.7,2.5-3.8,4.3-7.1,4c3.4,8.3,6.7,16.4,10.2,25.1
			c0.5-1.4,1-2.3,1.3-3.3c3.1-9,7.7-17,14.5-23.7c1.3-1.3,2.9-2.4,4.5-3.3c3.3-1.9,5.9-0.6,5.8,3.2c-0.1,3.1-0.7,6.2-1.7,9.1
			c-2.9,8.3-7.2,15.9-13.5,22.2c-2.3,2.3-5.3,3.9-8.3,6.1c1.2,7.7,2.5,16.1,3.9,25.3c1-1.5,1.6-2.5,2.3-3.6
			c5.8-9.1,13.1-16.6,22.9-21.5c2.4-1.2,5.3-2.4,7.4-0.5c2.1,2,0.9,5-0.3,7.3c-5.3,10.4-13.3,18.3-23.5,23.9
			c-2.4,1.3-5.4,1.6-8.3,2.5c-0.5,7.6-1.1,15.7-1.7,24.6c1.3-1.1,2.1-1.6,2.8-2.2c6.2-6.2,13.5-10.7,21.7-13.5
			c2.4-0.8,5.1-1.3,7.7-1.3c3.6-0.1,5.1,2.4,3.1,5.5c-2,3.2-4.4,6.4-7.3,9c-6.9,6.1-14.6,10.9-23.8,12.8c-1.9,0.4-3.9,0.5-6,0.8
			c-2.4,8-4.8,16.1-7.3,24.8c1.1-0.6,1.8-0.9,2.4-1.4c8-5.4,16.5-9.2,26.1-10.4c2.1-0.3,4.3-0.1,6.3,0.4c2.6,0.6,3.5,2.6,1.9,4.8
			c-1.8,2.5-4,4.9-6.4,6.7c-7.6,5.7-16.2,9.3-25.6,10.7c-2.9,0.4-5.9-0.1-9.5-0.2c-3.2,5.8-6.8,12.2-10.4,18.7
			c6-1.5,11.7-3.3,17.5-4.3c5.9-1,12-1.3,17.8,0.6c1.5,0.5,3.2,1.7,3.8,3.1c0.9,2-0.7,3.6-2.3,4.6c-3.1,1.7-6.3,3.6-9.7,4.7
			c-8.5,2.7-17.2,4.2-26.1,2.4C466.1,385.1,464,384,461.5,383.2z"/>
		<path class="st0" d="M279.2,306.2c0-1.9,0-3.4,0-5.3c-14.4-6.1-29-12.2-43.8-18.4c0-12.5,0-25.1,0-37.8c21.1,0,42,0,63.3,0
			c0,6.8,0,13.6,0,20.6c-6.1,0-12,0-18.2,0c-0.3-0.7-0.5-1.5-0.9-2.4c-8.3,0-16.6,0-25.1,0c0,1.9,0,3.6,0,5.8
			c14.6,6.1,29.4,12.3,44.2,18.5c0,12.7,0,25.1,0,37.8c-21.2,0-42.1,0-63.3,0c0-7,0-13.8,0-20.9c6.1,0,12.3,0,18.8,0
			c0.2,0.5,0.5,1.3,0.8,2.2C263,306.2,270.9,306.2,279.2,306.2z"/>
		<path class="st0" d="M348.6,326.8c0-6,0-11.7,0-17.6c1.3-0.1,2.5-0.3,4-0.5c8.1-21.6,16.2-43.3,24.3-64.9c5.4,0,10.5,0,15.9,0
			c8,21.3,15.9,42.7,23.9,64.2c1.1,0.2,2.1,0.3,3.5,0.5c0,6,0,12,0,18.3C396.4,326.8,372.7,326.8,348.6,326.8z M371.2,307.5
			c6.5,0.9,23.5,0.6,26.1-0.5c-4.1-10.4-8.2-20.9-12.3-31.3c-0.3,0-0.6,0.1-0.9,0.1C379.8,286.2,375.6,296.7,371.2,307.5z"/>
		<path class="st0" d="M358.8,405.5c2.9,2.8,5.5,5.3,7.8,8c0.5,0.5,0.2,2.1-0.2,3c-0.5,1-1.4,1.8-2.3,2.4
			c-8.4,6-14.2,14.6-21.4,21.8c-0.8,0.8-1.2,2.2-1.2,3.3c-0.1,4.1-1.6,7.4-4.6,10.3c-10.5,10.2-20.9,20.4-31.3,30.6
			c-3.6,3.5-5.4,3.6-9.2,0.1c-3.3-3-6.4-6.3-9.4-9.6c-3.5-3.9-3.3-6,0.4-9.6c7-6.8,14-13.5,21-20.2c3.4-3.3,6.9-6.5,10.2-9.9
			c2.9-2.9,6-4.6,10.3-4.5c1.4,0,3.2-0.7,4.3-1.6c6.3-5.3,12.5-10.8,18.6-16.3c0.9-0.8,1.5-1.9,2.4-2.8
			C355.5,408.9,356.9,407.4,358.8,405.5z"/>
		<path class="st0" d="M334.5,306.6c0.7,0.2,1.6,0.5,2.6,0.8c0,5.8,0,11.5,0,17.5c-8.7,0-17.2,0-25.9,0c0-6,0-11.8,0-17.8
			c0.9-0.2,1.8-0.5,2.7-0.7c0-14.5,0-28.9,0-43.4c-0.8-0.3-1.7-0.5-2.7-0.8c0-5.7,0-11.4,0-17.4c8.6,0,17.2,0,25.9,0
			c0,5.9,0,11.6,0,17.5c-0.7,0.2-1.4,0.5-2.5,0.9C334.5,277.5,334.5,291.9,334.5,306.6z"/>
		<path class="st0" d="M260.9,82.9c-0.1-0.5-0.3-1-0.4-1.5c0-0.2-3.5-7.7-5.3-11.4c-1.3,0.4-2.3,0.8-3.6,1.2
			c-8-8.8-16.1-17.5-24.3-26.3c1-0.9,1.6-1.4,2.3-2c-2.2-4.6-4.2-9-6.4-13.8c-10.9,5-21.4,9.7-32.1,14.6c1.9,4.4,3.7,8.5,5.7,12.5
			c0.4,0.9,1.9,1.2,3.2,2c1.3,11.4,2.5,23.1,3.8,34.9c-1.3,0.7-2.2,1.2-3.4,1.9c2.2,4.7,4.3,9.2,6.5,14c7.9-3.7,15.5-7.1,23.1-10.6
			c-1.7-3.9-3.2-7.5-4.9-10.9c-0.8-1.5-2-2.7-3.1-4.1c2.1-2.1,8-4.7,10.3-4.5c0.4,5.9,4.1,10.4,6,15.7c6-2.8,11.8-5.4,17.6-8
			c1.8-0.8,3.5-1.7,5.3-2.5C261.1,83.7,261,83.3,260.9,82.9z M239.5,92.3c-1.7-3.6-3.2-6.9-4.9-10.6c0.6-0.5,1.3-0.9,2.3-1.5
			c-1.9-1.3-3.4-2.3-5.3-3.7c-3.3,1.5-7.5,3.5-12,5.5c0.2,1.8,0.3,3.5,0.5,5.4h2.6c1.5,3.3,3,6.6,4.7,10.3c-6.6,3-12.9,5.9-19.6,8.9
			c-1.7-3.5-3.2-6.9-4.8-10.4c1-0.7,1.9-1.3,2.9-2c-1.4-13.1-2.8-26.2-4.3-39.5c-1.2,0.3-2.1,0.4-3.2,0.6c-1.5-3.3-3-6.6-4.7-10.4
			c9.7-4.4,18.8-8.6,28.6-13c1.7,3.5,3.2,6.8,4.8,10.3c-0.9,0.7-1.7,1.3-2.9,2.2c9,9.8,17.9,19.4,26.8,29.1c1.1-0.2,2.2-0.4,3.5-0.6
			c1.5,3.3,3.1,6.5,4.8,10.3C252.7,86.2,246.2,89.2,239.5,92.3z"/>
		<path class="st0" d="M261.5,81.1c0.1,0.5,0.3,1,0.4,1.5c0.1,0.4,0.1,0.7,0.3,1.1c1-0.4,2-0.8,3.1-1.2c2.7-0.8,5.7-0.7,8.5-1
			c4.8-0.5,9.6-1.1,14.9-1.8c-0.6-5.2-1.2-10.2-1.8-15.1c-1.5-0.2-2.7-0.3-3.9-0.5c-0.4-3.9-0.9-7.5-1.3-11.2
			c0.3-0.1,0.5-0.3,0.8-0.4c5.1,6.4,10.1,12.8,15.4,19.5c3.6-7.6,6.9-15,10.3-22.3c0.2,0,0.5,0.1,0.7,0.1c0.5,3.7,1,7.4,1.5,11.2
			c-1.4,0.5-2.5,0.9-3.8,1.4c0.5,5,1.1,9.8,1.7,15.2c9.1-1.1,18.1-2.1,27.1-3.4c-0.7-5.4-1.3-10.3-1.9-15.2c-1.5-0.1-2.6-0.1-4-0.2
			c-1.3-11.3-2.7-22.6-4-33.9c1.3-0.4,2.5-0.7,3.9-1.1c-0.6-5-1.2-9.9-1.8-15.2c-7.2,0.8-14.1,1.7-21.1,2.5
			c-4.1,9-8.2,17.9-12.6,27.4c-6.5-8.3-12.6-16.1-18.7-23.8c-7.1,0.9-13.8,1.7-20.9,2.6c0.7,5.5,1.2,10.3,1.8,15.2
			c1.6,0.1,2.7,0.2,4,0.3c1.2,11.4,2.9,22.5,3.7,33.7c-1.6,0.4-2.6,0.7-3.5,1c0.4,4.6,0.8,9,1.2,13.3 M310.4,75.3
			c-0.6-3.7-1.1-7.3-1.6-11.1c1.3-0.5,2.5-0.9,3.9-1.4c-0.8-6.8-1.6-13.6-2.4-20.4c-0.3-0.1-0.5-0.2-0.8-0.3
			c-4,8.4-7.9,16.9-12.1,26c-6.1-7.8-11.9-15.2-17.8-22.7c-0.2,0.1-0.5,0.2-0.7,0.3c0.9,6.9,1.7,13.8,2.5,20.8
			c1.5,0.2,2.6,0.3,4,0.4c0.4,3.7,0.7,7.4,1.1,11.3c-7.7,0.9-14.8,1.7-22.5,2.6c-0.6-3.8-1.1-7.5-1.7-11.4c1.3-0.3,2.4-0.5,3.9-0.9
			c-1.5-12.5-2.9-25-4.4-37.5c-1.3-0.2-2.4-0.3-3.8-0.5c-0.5-3.5-1-7-1.6-11.1c6-0.7,11.8-1.4,17.9-2.2c6.5,8.3,13.1,16.6,20,25.4
			c4.7-10.2,9.1-19.7,13.6-29.5c6-0.7,11.8-1.4,18-2.1c0.5,4,0.9,7.7,1.3,11.5c-1.2,0.3-2.3,0.5-3.8,0.9c1.5,12.6,2.9,25,4.4,37.6
			h4.1c0.4,3.8,0.8,7.4,1.2,11.5C325.5,73.5,318.2,74.3,310.4,75.3z"/>
		<path class="st0" d="M274,558.9c-3.2-4.5-6.4-9-9.8-13.4c-1.4-1.8-2-3.4-1.5-5.8c1-5.9,1.6-11.8,2.5-17.8c0.2-1.2,0.9-2.6,1.8-3.4
			c3.8-3.2,7.8-6.2,11.7-9.3c1.2-0.9,2.4-1.2,4.1-0.9c9.6,1.5,19.2,2.7,28.9,3.9c1.6,0.2,2.8,0.7,3.7,2c2.9,3.9,5.8,7.8,8.7,11.7
			c0.6,0.8,1.1,2.1,1,3c-0.5,4.8-1.2,9.6-1.8,14.7c-5.5-0.6-10.6-1.1-15.8-1.7c2.5,0.8,3.7,2.8,5,4.7c2.5,3.4,5.1,6.8,7.5,10.3
			c0.6,0.8,1.2,2,1.1,3c-0.8,6.4-1.7,12.8-2.7,19.2c-0.2,1.2-0.9,2.6-1.9,3.4c-3.8,3.2-7.7,6.3-11.8,9.3c-0.9,0.7-2.3,1-3.4,0.9
			c-10-1.3-20-2.6-30-4.1c-1.2-0.2-2.5-1.1-3.3-2.1c-2.9-3.7-5.7-7.6-8.5-11.4c-0.6-0.8-1.2-1.8-1.1-2.7c0.5-4.9,1.2-9.8,1.9-14.8
			C265.2,558.1,269.6,558.4,274,558.9c2.9,0.5,5.8,1,8.8,1.6c-0.3,2.5-0.4,4.6-0.7,6.7c-0.3,2,0.4,3.3,2.2,3.7
			c2.9,0.6,5.9,1,8.9,1.3c2,0.2,3.5-0.8,3.6-2.9c0.1-2.8,2.3-5.9-1.3-8.1c-0.2-0.1-0.5-0.1-0.7-0.1
			C287.8,560.3,280.9,559.6,274,558.9z M303.3,538.8c6.3,0.8,12,1.5,17.8,2.3c0.6-4,1.2-7.4,1.5-10.9c0.1-1.1-0.3-2.5-1-3.4
			c-2.4-3.5-5-6.9-7.6-10.2c-0.6-0.8-1.7-1.7-2.6-1.8c-9.4-1.4-18.8-2.7-28.2-3.8c-1.4-0.2-3.2,0.5-4.4,1.4
			c-3.3,2.3-6.4,4.8-9.5,7.4c-0.9,0.7-1.7,1.9-1.9,3c-0.9,5.5-1.5,11.1-2.3,16.7c-0.3,2.1,0.2,3.9,1.5,5.5c2,2.5,4.1,5.1,5.8,7.8
			c1.5,2.5,3.7,3.4,6.4,3.8c5.5,0.6,10.9,1.4,16.3,2.1c2.8,0.4,4.7,2.5,4.6,5.3c-0.1,2.1-0.4,4.2-0.8,6.3c-0.5,2.7-2.9,4.6-5.5,4.3
			c-3.1-0.3-6.2-0.7-9.3-1.3c-3.4-0.6-5-2.9-4.5-6.4c0.2-1.3,0.2-2.7,0.3-4.4c-6-0.8-11.7-1.6-17.5-2.3c-0.6,3.7-1.3,6.9-1.6,10.1
			c-0.1,1.2,0.3,2.8,0.9,3.8c2.5,3.6,5.1,7.1,7.8,10.5c0.7,0.9,1.9,1.5,3,1.7c2.8,0.6,5.7,0.8,8.5,1.2c6.1,0.8,12.1,1.6,18.2,2.5
			c2.2,0.3,4.1-0.1,5.9-1.6c2.8-2.4,5.9-4.6,8.8-7c0.9-0.8,1.8-2.1,2-3.3c0.9-5.2,1.5-10.4,2.3-15.5c0.4-2.4,0-4.3-1.6-6.2
			c-2.3-2.7-4.3-5.5-6.3-8.4c-1.2-1.8-2.6-2.6-4.9-2.8c-5.7-0.5-11.4-1.4-17.1-2.2c-3.4-0.5-5.1-2.8-4.8-6.3
			c0.1-1.6,0.4-3.2,0.6-4.8c0.5-3.9,2.7-5.7,6.5-5.2c2.7,0.3,5.4,0.7,8.1,1.2c3.9,0.7,5.5,3.1,4.9,6.9
			C303.8,535.9,303.6,537.1,303.3,538.8z M300.8,541c0.3-2.6,0.5-4.7,0.7-6.8c0.2-2.8-0.6-3.9-3.4-4.3c-2.4-0.4-4.9-0.8-7.4-1
			c-2-0.2-3.4,0.6-3.8,2.7c-0.3,1.6-0.6,3.2-0.7,4.8c-0.2,3.1,0.7,4.1,3.7,4.4c1.9,0.2,3.7,0.5,5.5,0.7c3.1,0.3,6.1,0.6,9.2,0.9
			c0-0.2,0-0.3,0-0.5C303.5,541.6,302.3,541.3,300.8,541z"/>
		<path class="st0" d="M327.6,466.8c3.3-3.4,6.3-6.8,9.6-10c3-2.8,5.3-5.9,6.1-10.5c1.2,1.1,2.3,1.9,3.2,2.8
			c6.2,5.8,12.4,11.5,18.6,17.3c3.6,3.4,3.8,5.5,0.6,9.3c-3.2,3.7-6.5,7.2-10,10.6c-2.6,2.6-5.3,2.5-7.9,0
			c-6.7-6.2-13.2-12.5-19.8-18.8C327.8,467.3,327.6,466.9,327.6,466.8z"/>
		<path class="st0" d="M405.2,521.3c-1.1,0-1.9,0-3.1,0c-2.3-5.6-4.7-11.3-7.2-17.4c13.6-5.6,27.2-11.1,41.1-16.7
			c2.4,6,4.8,11.7,7.2,17.6c-1.1,0.7-1.9,1.2-3.2,2c9.7,11.3,19.4,22.4,29,33.6c1.6-0.5,2.9-0.8,4.7-1.4c2.4,5.7,4.7,11.4,7.3,17.6
			c-10,4.1-19.9,8.1-30,12.3c-2.3-5.5-4.5-10.7-6.5-15.9c-0.3-0.7,0.2-1.7,0.3-2.6c0.1-0.6,0-1.3,0-2.5c-5,2.3-9.9,3.5-14.1,6.7
			c3.3,0.6,3.6,3.2,4.5,5.4c1.7,4.2,3.4,8.5,5.3,13.1c-9.9,4-19.6,8-29.8,12.1c-2.5-6-4.8-11.7-7.2-17.6c0.8-0.5,1.4-0.9,2-1.2
			c0.6-0.4,1.3-0.7,2.3-1.2C407,550.7,406.1,536.1,405.2,521.3z M468.2,543.2c-10.7-12.4-21.4-24.8-32.3-37.3c1.6-0.9,2.8-1.6,4-2.3
			c-1.8-4.4-3.6-8.6-5.4-13.2c-12.3,5-24.3,9.9-36.4,14.8c1.9,4.6,3.7,8.9,5.4,13.1c1.6-0.3,2.6-0.5,3.9-0.7
			c1,16.5,2.1,32.8,3.1,49.1c-1.3,0.7-2.5,1.3-3.9,2c1.8,4.5,3.6,8.8,5.4,13.3c8.6-3.5,16.8-6.9,25.2-10.4
			c-1.9-4.7-3.6-8.8-5.3-12.9c-1.2,0-2.2,0-3.3,0c0-2.3,0-4.5,0-6.9c5.4-2.2,10.8-4.4,16.2-6.6c1.7,1.8,3.2,3.5,4.8,5.3
			c-1.1,0.7-1.8,1.3-2.8,1.9c1.8,4.4,3.6,8.7,5.5,13.2c8.6-3.5,16.9-6.9,25.4-10.4c-1.9-4.7-3.6-8.9-5.4-13.2
			C470.9,542.5,469.7,542.8,468.2,543.2z"/>
		<path class="st0" d="M56.7,459c1.6,1.1,2.7,1.9,4,2.9c12.6-7.8,25.1-15.5,37.8-23.3c-0.8-1-1.3-1.7-2-2.5c4-4.8,7.9-9.6,12.1-14.6
			c11.4,9.5,22.7,18.8,34,28.1c-4.1,4.9-8.1,9.8-12.2,14.7c-1.1-0.7-2-1.3-3.1-2c-5.4,13.9-10.6,27.5-15.9,41.4
			c1.1,1.1,2.2,2.3,3.4,3.6c-4,4.9-8,9.6-12.1,14.7c-8.2-6.8-16.4-13.6-24.8-20.6c4.1-4.9,8.1-9.8,12-14.5c0.9,0.2,1.6,0.3,2.3,0.5
			c0.2-0.5,0.5-1.1,0.4-1.2c-3.2-2.9-6.3-5.8-9.6-8.6c-0.5-0.5-1.5-0.4-2.9-0.7c0.5,1.3,0.8,2,1.1,2.9c-3.9,4.7-7.9,9.5-12,14.4
			c-8.3-6.9-16.3-13.5-24.7-20.4C48.6,468.8,52.6,463.9,56.7,459z M95.8,485c-0.9,2.5-1.7,4.5-2.5,6.7c-1.1-0.6-1.9-1.1-2.9-1.7
			c-3.1,3.8-6,7.4-9.1,11.1c7.2,6,14,11.6,21.1,17.5c3.2-3.8,6.2-7.4,9.5-11.5c-1.3-0.8-2.4-1.5-3.6-2.2c6-15.7,11.9-31,17.8-46.5
			c1.6,1.1,2.6,1.8,3.8,2.6c3.1-3.7,6-7.3,9.2-11.1c-10.2-8.4-20-16.6-30.2-25c-3.2,3.8-6.1,7.4-9.1,11c1,1.1,1.7,1.9,2.7,3
			c-14.1,8.7-28,17.3-41.8,25.9c-1.4-0.8-2.5-1.5-3.9-2.3c-3.1,3.7-6,7.3-9,11c7.2,6,14,11.6,21,17.3c3.2-3.9,6.2-7.5,9.1-11
			c-0.7-1-1.2-1.7-1.9-2.6c2.2-1.2,4.1-2.3,6-3.5C86.7,477.5,91.1,481.2,95.8,485z"/>
		<path class="st0" d="M532,444.5c-0.9,0.9-1.5,1.6-2.1,2.3c1,1.1,1.9,2.1,2.8,3.1c-4.5,4.5-9,9-13.4,13.3
			c-5.5-5.4-11.1-10.8-17.1-16.7c16.5-16.1,32.8-32.1,49.1-48.1c5.6,5.8,11.1,11.5,16.4,16.9c-4.3,4.6-8.5,9.2-12.9,13.9
			c-1.4-1.2-2.5-2.2-4-3.5c-0.7,0.7-1.3,1.4-2.2,2.3c10.1,10.3,19.8,20.2,29.6,30.2c1.3-1,2.4-1.9,3.3-2.6
			c4.7,4.4,9.3,8.7,13.6,12.8c-7.7,8.1-15.2,15.8-22.5,23.5c-4.9-4.7-9.5-9.1-14.2-13.6c1.1-1.3,2.1-2.3,3.3-3.6
			C551.7,464.7,542,454.7,532,444.5z M550.5,402.6c-14.5,14.2-29.6,29-44.8,43.9c4.8,4.4,9.3,8.7,13.9,12.9c2.6-2.9,5.8-6.3,9.1-9.9
			c-0.5-0.5-1.4-1.5-2.1-2.4c1.8-2,3.4-3.8,5.3-6c11.1,11.3,22,22.4,32.9,33.6c-1.2,1.4-2.1,2.4-3.1,3.5c3.4,3.3,6.7,6.6,10.3,10.1
			c6.6-6.5,13.2-12.8,19.4-18.9c-3.4-3.6-6.6-7-9.9-10.5c-1.2,1-2.2,1.8-3.5,2.8c-11-11.2-21.8-22.3-32.9-33.6
			c2.1-2,3.9-3.7,5.8-5.4c1.2,1.1,2.2,2.1,3.3,3.1c3.2-3.4,6.4-6.9,9.8-10.5C559.8,411.2,555.3,407,550.5,402.6z"/>
		<path class="st0" d="M354.2,594.3c-0.9-6.5-1.8-12.5-2.7-18.7c1.4-0.4,2.8-0.8,4.5-1.4c-1.9-13.8-3.9-27.6-5.8-41.6
			c-1,0.1-1.8,0.1-2.8,0.2c0,1.6,0,2.9,0,4.8c-6.1,0.9-12.3,1.8-18.9,2.7c-1.1-8-2.2-15.6-3.4-23.8c22.6-3.4,44.9-6.4,67.7-9.6
			c1.1,8,2.2,15.8,3.4,23.9c-6.3,0.9-12.5,1.7-18.9,2.6c-0.3-1.7-0.6-3-0.9-4.7c-1.1,0.3-2.1,0.5-3.1,0.7c2,13.9,3.9,27.5,5.8,41.2
			c1.5,0,2.8,0,4.7,0c0.9,6.3,1.8,12.5,2.7,19.1C375.7,591.3,365.3,592.8,354.2,594.3z M377.1,573.7c-2.2-15.7-4.3-31-6.5-46.5
			c3-0.3,5.3-0.6,7.7-0.9c0.5,1.7,1,3,1.4,4.4c4.7-0.7,9-1.3,13.8-2c-0.9-6.6-1.8-12.6-2.7-19c-21.2,3-41.9,5.9-62.9,8.8
			c0.9,6.6,1.8,12.7,2.7,19.1c4.8-0.7,9.3-1.4,14-2.1c0-1.7,0-3,0-4.7c2.6-0.3,5-0.6,7.7-1c2.2,15.8,4.4,31,6.5,46.4
			c-1.7,0.4-3,0.8-4.5,1.1c0.6,4.7,1.3,9.3,1.9,14.2c9.2-1.3,18.1-2.5,27.6-3.9c-0.7-4.8-1.4-9.4-2.1-14
			C380.1,573.7,378.8,573.7,377.1,573.7z"/>
		<path class="st0" d="M174.2,490.6c-1.5-0.6-2.6-1.1-4.2-1.8c-6.6,12.3-13.1,24.6-19.9,37.2c3.6,2,7.1,3.9,10.7,5.9
			c0.9-1.2,1.7-2.4,2.8-3.9c5.3,2.8,10.6,5.6,16.3,8.6c-3.8,7.2-7.5,14-11.3,21.3c-17.3-9.2-34.3-18.3-51.7-27.5
			c3.1-5.8,6-11.2,9-16.9c1.3,0.6,2.4,1.1,4.1,1.8c6.6-12.3,13.1-24.6,19.8-37.1c-1.2-0.9-2.3-1.7-3.7-2.8
			c2.9-5.5,5.8-10.9,8.9-16.7c9.5,5,18.7,9.9,28.1,14.9C180.2,479.3,177.2,484.9,174.2,490.6z M153.2,477.2
			c-7.4,13.9-14.7,27.5-22,41.2c-1.6-0.6-2.8-1.1-4.2-1.7c-2.2,4.2-4.4,8.3-6.7,12.6c15.9,8.5,31.6,16.8,47.5,25.3
			c3.1-5.9,6-11.3,9-17c-4.2-2.3-8.2-4.4-12.2-6.5c-1,1.4-1.8,2.6-2.7,3.9c-5-2.7-9.8-5.2-14.9-8c7.5-14,14.8-27.7,22.1-41.4
			c1.6,0.7,2.8,1.2,4.2,1.8c2.2-4.2,4.4-8.3,6.7-12.7c-8.1-4.3-15.9-8.5-23.9-12.7c-2.3,4.4-4.5,8.5-6.8,12.7
			C150.7,475.6,151.7,476.2,153.2,477.2z"/>
		<path class="st0" d="M409.6,40.1c-1.2-0.8-2-1.3-3.3-2.1c2-4.6,4.1-9.2,6.2-14c7.9,3.5,15.7,6.9,23.9,10.6
			c-2.1,4.8-4.1,9.4-6.1,14.1c-1.3-0.4-2.4-0.7-3.7-1.1c-1.2,2.6-2.4,5.2-3.5,7.8c-2.9,6.6-5.9,13.2-8.8,19.8c-1.4,3.2-1,4.2,2,5.5
			c1.4,0.6,2.7,1.2,4.1,1.8c2.8,1.1,3.7,0.9,5-1.9c1.6-3.4,3-6.8,4.5-10.2c2.6-5.9,5.2-11.8,7.8-17.9c-1.2-0.7-2.1-1.2-3.1-1.8
			c0.3-0.8,0.4-1.5,0.7-2.2c1.7-3.8,3.4-7.7,5.4-12c8,3.5,15.8,6.9,23.9,10.5c-2.1,4.7-4.1,9.4-6.3,14.1c-1.1-0.4-2.2-0.7-3.5-1.1
			c-2.8,6.2-5.6,12.4-8.3,18.6c-2.2,5-4.3,10.1-6.7,15c-0.6,1.2-1.8,2.4-3.1,2.9c-3.3,1.5-6.7,2.8-10.1,4c-1.2,0.4-2.8,0.5-3.9,0.1
			c-7.3-3.1-14.6-6.4-21.8-9.7c-1.1-0.5-2-1.7-2.6-2.8c-1-1.9-1.3-4.1-2.4-5.9c-2.7-4.6-1.6-8.8,0.5-13.3
			C401.2,59.6,405.3,49.9,409.6,40.1z M439.9,51.3c0,0.5,0.1,0.7,0,0.9c-4.5,10.2-8.9,20.3-13.4,30.5c-1,2.3-3.2,3-5.6,2.1
			c-1.9-0.7-3.6-1.6-5.5-2.4c-4.1-1.8-4.8-3.5-3.1-7.6c3.7-8.4,7.5-16.9,11.2-25.3c0.7-1.5,1.4-2.9,2.1-4.4c1.3,0.4,2.3,0.7,3.6,1
			c1.5-3.5,3-6.9,4.6-10.6c-6.8-3-13.4-5.9-20.3-8.9c-1.6,3.7-3.1,7.1-4.6,10.5c1.2,0.8,2.1,1.3,3.2,2c-4,9.2-8,18.2-11.9,27.2
			c-1.4,3.3-3.7,6.6-3.8,10c0,3.4,2.4,6.7,3.5,10.1c0.6,1.7,1.5,2.7,3.1,3.4c4.1,1.7,8.5,3.2,12.3,5.5c6.5,3.9,12.6,4.1,19.2,0.3
			c1.9-1.1,3.5-2.1,4.4-4.2c4.1-9.5,8.3-19,12.5-28.4c0.8-1.8,1.7-3.5,2.5-5.4c1.3,0.3,2.4,0.6,3.6,0.9c1.5-3.5,3-6.9,4.6-10.4
			c-7-3.1-13.6-6-20.4-9c-1.6,3.7-3.1,7.2-4.6,10.6C438.3,50.4,439.2,50.9,439.9,51.3z"/>
		<path class="st0" d="M262.8,519c-1.8,5.4-3.6,10.5-5.1,15.6c-0.8,2.9-2.1,4.9-5,5.9c-0.8,0.3-1.5,0.9-2.1,1.3
			c0.1,0.4,0,0.7,0.2,0.9c2.9,4.2,1.9,8.3,0.2,12.7c-1.7,4.3-2.9,8.7-4.5,13.1c-0.4,1.2-1.4,2.4-2.4,3c-4.2,2.4-8.6,4.6-12.9,6.7
			c-1.1,0.5-2.7,0.8-3.8,0.5c-14.1-4.5-28.2-9.2-42.2-13.8c-0.7-0.2-1.4-0.5-2.6-1c2-6,3.9-11.9,5.9-18c1.6,0.4,2.8,0.6,4.6,1
			c4.4-13.3,8.7-26.6,13.2-40.1c-1.4-0.6-2.6-1.2-4.3-1.9c1.9-5.9,3.8-11.9,5.8-18.2c3.3,1.1,6.3,2.1,9.3,3.1
			c11.6,3.8,23.1,7.6,34.7,11.3c2.1,0.7,3.3,1.8,4.2,3.8C258.1,509.6,260.5,514.2,262.8,519z M185.4,562.2c1,0.4,1.6,0.7,2.1,0.9
			c10.4,3.4,20.8,6.9,31.2,10.3c3.3,1.1,6.7,3.1,9.9,2.8c3.4-0.3,6.4-3.1,9.8-4.5c4-1.6,6.6-4.1,7.3-8.5c0.4-2.4,1.3-4.8,2.4-7.1
			c2.2-5,2.7-9.7-0.9-14.3c-0.1-0.2-0.1-0.5-0.1-1.1c1.3-0.7,2.6-1.6,4.1-2.2c2.4-1,3.7-2.7,4.3-5.1c1.1-3.8,2.3-7.6,3.7-11.4
			c0.7-1.9,0.7-3.5-0.3-5.3c-1.8-3.4-3.5-6.9-5.1-10.4c-0.9-1.9-2.2-2.7-4.1-3.4c-8.5-2.7-17-5.6-25.5-8.4
			c-4.9-1.6-9.9-3.1-15.1-4.8c-1.5,4.7-2.9,9.2-4.4,13.6c1.7,0.7,2.9,1.2,4.3,1.8c-4.9,14.9-9.8,29.7-14.7,44.6
			c-1.7-0.4-2.9-0.7-4.5-1.1C188.3,553.1,186.9,557.5,185.4,562.2z"/>
		<path class="st0" d="M509.6,86.3c-0.3-0.8-0.2-1.7-0.1-2.6c0.2-2.8-1-4.6-3.2-6.3c-5.7-4.2-11.3-8.6-16.8-13.1
			c-1.5-1.3-3.1-1.4-4.8-1.2c-3.1,0.4-6.1,1-9.2,1.4c-2,0.3-3.5,1-4.7,2.7c-2.5,3.5-5.2,7-8,10.3c-1.8,2.1-2.2,4.1-1.7,6.8
			c0.6,3.5,1.4,11.2,1.5,11.3c0,0,0.3,0.2,0.3,0.3c0,0,0,0,0,0c1.7,1.4,3.6,2.5,5.4,3.7c0,0,0,0,0,0c2.5,2,5.1,3.9,7.5,6
			c0.7,0.6,1.2,2.2,0.8,2.9c-0.9,1.7-2.2,3.2-3.6,4.6c-0.5,0.5-1.9,0.6-2.4,0.2c-2.1-1.5-4.2-3.1-6.1-4.8c-1.3-1.2-0.7-2.7,0.2-4
			c0.9-1.3,1.9-2.6,3-4.1c-1.9-1.2-3.7-2.4-5.5-3.8c-0.1-0.1-0.1-0.1-0.2-0.2c-0.1,0-0.1-0.1-0.2-0.1c-0.1-0.1-5.7-4.6-8.4-6.6
			c-1.9,2.5-3.7,4.7-5.5,6.9c-1.7,2-2.7,4-2.2,6.8c0.5,3.2,0.6,6.4,1.1,9.6c0.2,1.1,0.8,2.4,1.7,3.1c5.9,4.8,11.9,9.5,18,14
			c1.1,0.8,2.8,1.2,4.1,1.1c3.8-0.3,7.6-0.9,11.4-1.6c0.9-0.1,1.9-1,2.6-1.8c2.8-3.5,5.5-7.1,8.3-10.6c1.2-1.5,2-3,1.7-5.1
			c-0.6-4.2-1.4-12.9-1.5-12.9c-0.8-0.6-1.8-1.1-2.7-1.7c-0.6-0.5-1.2-1-1.8-1.5c-0.2,0-0.3-0.1-0.3-0.3c-0.1-0.1-0.3-0.2-0.4-0.3
			c-0.1-0.1-5.1-4-7.5-5.9c-1.6-1.3-1.8-2.9-0.4-4.5c0.4-0.5,0.8-1,1.2-1.5c2.5-3.2,3.1-3.2,6.3-0.7c5.4,4.3,5.4,4.3,1.7,10
			c-0.4,0.5-0.7,1.8-0.6,1.9c0,0,0.1,0,0.1,0.1c0.1,0,0.1,0.1,0.1,0.1c0.8,0.7,1.6,1.4,2.4,2c0.8,0.6,1.7,0.9,2.4,1.5
			c0.1,0.1,5.7,4.5,8.7,6.7c0.9-1.1,1.5-2,2.1-2.7C508.9,97.8,511.7,92.9,509.6,86.3z M501.9,102.1c-3.3-2.6-7-5.4-10.8-8.4
			c0.9-1.2,1.8-2.2,2.5-3.3c1.4-2,1.1-4.4-0.7-6c-1.9-1.6-3.9-3.1-5.9-4.6c-0.3-0.2-0.7-0.5-1-0.6c-2.5-0.9-5.7,1.4-8.2,5.8
			c-1.1,1.8-0.7,4.1,1.1,5.6c3.5,2.8,7,5.6,10.6,8.3c1.5,1.1,2.3,2.4,2.4,4.3c0.2,2.8,0.9,5.6,1,8.5c0,1.3-0.4,2.9-1.2,4
			c-2.3,3.2-5,6.3-7.3,9.5c-1.3,1.9-3.1,2.8-5.3,3c-3.3,0.3-6.5,0.8-10.1,1.3c-6.1-4.7-12.1-9.5-18.1-14.2c-1.3-0.9-2-2.1-2.1-3.7
			c-0.3-3.3-0.8-6.5-1-9.7c-0.1-0.9,0.3-2,0.8-2.7c1.6-2.3,3.3-4.4,5.3-6.9c3.7,2.9,7.3,5.7,11.2,8.7c-0.8,1.2-1.5,2.1-2.2,3.1
			c-1.5,2.2-1.5,4.2,0.5,5.9c2,1.8,4.1,3.3,6.2,4.9c0.2,0.1,0.4,0.3,0.6,0.4c2.5,1,5.5-1,8.1-5.3c1.2-2,0.8-4.3-1.2-5.9
			c-3.3-2.7-6.7-5.3-10.1-7.8c-2-1.5-3.3-3-3-5.6c0.1-0.2,0.1-0.5,0-0.7c-2-7,0.8-12.3,5.2-17.6c3.3-4,6.6-6.5,11.7-6.6
			c1.5,0,3-0.5,4.5-0.4c1.2,0.1,2.7,0.4,3.7,1.1c5.6,4.2,11.1,8.5,16.5,12.9c0.9,0.8,1.3,2.2,1.8,3.4c0.4,0.8,0.3,1.7,0.5,2.6
			C509.4,92,508,97.7,501.9,102.1z"/>
		<path class="st0" d="M494.6,548c-3.4-5.1-6.8-10.3-10.4-15.7c1.2-1,2.3-1.8,3.7-2.9c-7.8-11.7-15.4-23.3-23.3-35.2
			c-1.3,0.7-2.5,1.4-4.1,2.3c-3.4-5.2-6.9-10.3-10.4-15.6c0.7-0.7,1.2-1.3,1.9-1.8c12.3-8.2,24.6-16.4,37.1-24.5
			c1.3-0.8,3.3-1,4.9-0.7c4.4,0.7,8.8,1.8,13.1,2.9c1.2,0.3,2.5,1.2,3.2,2.2c9.4,14,18.7,28,27.9,42.1c0.6,0.9,0.8,2.3,0.6,3.5
			c-0.7,4.7-1.5,9.4-2.5,14c-0.3,1.3-1.1,2.9-2.2,3.6c-12.8,8.6-25.7,17.1-38.6,25.6C495.4,547.9,495.1,547.9,494.6,548z
			 M495.2,544.6c0.7-0.2,1-0.2,1.2-0.3c11.9-7.8,23.7-15.6,35.5-23.6c1-0.7,1.7-2.1,2-3.3c0.8-3.4,1.1-6.9,2.1-10.2
			c0.9-3,0.2-5.2-1.4-7.6c-8.4-12.4-16.6-24.9-24.8-37.4c-1.2-1.8-2.4-3-4.6-3.3c-3.7-0.5-7.3-1.4-10.9-2.3
			c-2.1-0.5-3.7-0.2-5.6,1.1c-7.1,4.8-14.3,9.5-21.5,14.3c-4.6,3.1-9.2,6.2-14,9.4c2.8,4.2,5.4,8.1,8,12c1.5-0.8,2.6-1.5,4.1-2.3
			c8.7,13.1,17.2,26,25.9,39.1c-1.3,1.1-2.4,1.9-3.7,3C490,536.9,492.6,540.7,495.2,544.6z"/>
		<path class="st0" d="M177.1,134c-4-0.5-7.6-1-11.2-1.3c-2.5-0.2-4.3-1.2-5.9-3.2c-7.2-9.2-14.5-18.4-22.1-27.3
			c-2.7-3.1-3.8-6.3-3.1-10.2c0.2-1.2,0.7-2.5,0.5-3.7c-0.6-4.5,1.9-7.1,5.1-9.5c5-3.7,9.7-7.8,14.6-11.6c1.1-0.8,2.7-1.3,4.1-1.2
			c3.8,0.3,7.7,0.9,11.5,1.5c0.9,0.1,1.8,0.8,2.4,1.5c2.7,3.2,5.3,6.6,8.3,10.3c-4.7,3.8-9.3,7.6-13.8,11.2
			c-2.9-2.1-3.7-6.2-7.8-6.9c-1.9,1.6-3.9,3.1-5.8,4.7c-1.5,1.2-1.7,2.7-0.5,4.3c6,7.4,11.9,14.7,18,22c0.6,0.8,1.7,1.2,2.8,1.8
			c2.1-1.7,4.1-3.2,6-4.8c1.6-1.4,1.6-3,0.4-4.6c-1.2-1.6-2.5-3.1-4-5c4.6-3.7,9-7.4,13.9-11.3c3,3.7,5.9,7.2,8.6,10.8
			c0.4,0.5,0.4,1.4,0.3,2.1c-0.3,3.9-0.5,7.7-1,11.6c-0.1,1-0.6,2.3-1.3,2.9C190.4,123.4,183.6,128.8,177.1,134z M178.5,78.9
			c-1.9-2.5-3.8-4.6-5.4-6.9c-1.4-1.9-3-3.1-5.5-3.1c-2.7,0-5.4-0.8-8.2-1c-1.1-0.1-2.5,0.3-3.3,0.9c-5.6,4.4-11.2,8.8-16.6,13.4
			c-1,0.8-1.7,2.4-1.9,3.7c-0.5,2.8-0.4,5.7-1,8.5c-0.3,1.8,0.1,3.1,1.2,4.4c7.9,9.8,15.8,19.6,23.8,29.4c0.7,0.9,1.9,1.7,3,2
			c3.4,0.7,6.9,1.1,10.4,1.4c0.9,0.1,2.1-0.2,2.7-0.7c5.9-4.6,11.7-9.4,17.5-14.1c0.3-0.2,0.8-0.5,0.8-0.8c0.4-4.8,1.6-9.7,0.8-14.3
			c-0.6-3.1-4.1-5.6-6.5-8.6c-4,3.2-7.5,6.1-11.1,9c1.3,1.6,2.4,2.8,3.3,4.2c1.6,2.1,1.4,4.3-0.5,6s-3.8,3.2-5.8,4.7
			s-4.3,1.2-5.9-0.8c-6.2-7.6-12.4-15.3-18.6-23c-1.7-2.2-1.5-4.4,0.5-6.2c1.8-1.6,3.6-3.1,5.5-4.5c2-1.5,4.2-1.2,6,0.7
			c1.3,1.4,2.6,3,3.9,4.5C171.3,84.8,174.8,82,178.5,78.9z"/>
		<path class="st0" d="M283.6,416.7c2.9-3.2,5.6-6,8.7-9.4c4.6,4.3,8.9,8.5,13.4,12.5c4.6,4.1,9.3,7.9,13.1,11.1
			c-3,3.6-6.1,7.3-9.4,11.2c-5.2-5.4-9.9-10.6-14.8-15.5c-2.1-2.1-4.5-3.8-6.8-5.7C286.4,419.7,285.2,418.3,283.6,416.7z"/>
		<path class="st0" d="M361.4,56c-0.5,2.9-0.8,5.4-1.3,8c1.1,0.4,2,0.8,3.4,1.3c-0.8,4.9-1.6,9.9-2.5,15.2
			c-8.6-1.4-16.8-2.8-25.2-4.2c0.9-5.2,1.7-10,2.5-15.1c1.3,0,2.4,0,3.8,0c1.9-11.3,3.8-22.4,5.6-33.7c-1.2-0.4-2.1-0.7-3.5-1.1
			c0.8-4.9,1.5-9.8,2.4-15.1c2,0.2,3.8,0.4,5.6,0.7c10.2,1.7,20.4,3.5,30.6,5.2c1.8,0.3,2.9,1,3.8,2.5c1.6,2.7,3.4,5.3,5.3,7.7
			c1.4,1.8,1.7,3.7,1.3,5.9c-0.9,4.5-1.5,9.1-2.4,13.6c-0.3,1.3-1.1,2.8-2.2,3.6c-2.8,2.4-5.9,4.6-9,6.8c-0.9,0.6-2.3,0.8-3.4,0.7
			c-3.3-0.4-6.6-1.1-9.9-1.6C364.9,56.2,363.3,56.1,361.4,56z M360.1,53.5c3.6,0.6,6.9,0.6,10,1.6c5.6,1.8,9.9,0.5,14.3-3.3
			c2.9-2.6,5.7-4.7,5.5-9c-0.1-1.7,0.5-3.4,1-5.1c1.2-4.6,1-8.8-2.6-12.4c-1-1-1.8-2.4-2.5-3.7c-1-1.9-2.6-2.4-4.6-2.7
			c-4.2-0.6-8.4-1.4-12.5-2.1c-6.6-1.1-13.2-2.2-20.1-3.3c-0.7,3.9-1.3,7.5-1.9,11.3c1.3,0.4,2.3,0.7,3.6,1.2
			c-2.1,12.5-4.2,24.9-6.2,37.3c-1.3,0-2.4,0-3.8,0c-0.6,3.7-1.2,7.4-1.8,11.4c7.2,1.2,14.2,2.3,21.4,3.5c0.6-4.1,1.2-7.6,1.7-11.1
			c-1.4-0.7-2.3-1.2-3.4-1.7C358.7,61.5,359.3,57.7,360.1,53.5z"/>
		<path class="st0" d="M279.5,68.8c1.4,0.1,2.5,0.1,3.9,0.2c0.3,2.4,0.6,4.7,0.9,7.4c-6.4,0.8-12.4,1.5-18.9,2.3
			c-0.3-2.5-0.5-4.8-0.8-7.2c1.1-0.5,2.1-0.9,3.7-1.5c-1.6-13.5-3.2-27.2-4.8-41.1c-1.4-0.1-2.6-0.3-4.1-0.4
			c-0.2-2.4-0.3-4.7-0.5-7.3c5-0.6,9.7-1.2,14.7-1.8c6.9,8.9,13.9,17.8,21.2,27.3c5-10.7,9.8-21,14.6-31.5c4.7-0.5,9.3-1.1,14.4-1.7
			c0.3,2.5,0.6,4.8,1,7.3c-1.4,0.5-2.5,0.9-3.8,1.3c1.6,13.8,3.2,27.4,4.8,41.1c1.2,0.2,2.3,0.3,3.9,0.5c0.3,2.3,0.6,4.6,0.9,7.3
			c-6.5,0.7-12.5,1.4-18.8,2.1c-0.3-2.7-0.6-4.9-0.9-7.3c1.2-0.4,2.3-0.8,3.7-1.3c-1.2-10-2.3-19.9-3.5-29.9c-0.2,0-0.4-0.1-0.6-0.1
			c-4.5,9.8-9,19.5-13.8,29.9c-7.1-9-13.7-17.5-20.4-25.9c-0.2,0.1-0.3,0.2-0.5,0.3C277.1,48.7,278.2,58.5,279.5,68.8z"/>
		<path class="st0" d="M206.6,97.2c0.4-1.4,1.2-2.8,1.1-4.2c-1.4-13.2-2.9-26.3-4.4-39.4c-0.1-0.5-0.2-0.9-0.4-1.7
			c-1.1,0.2-2.2,0.4-3.6,0.7c-0.9-2.1-1.9-4.2-3.1-6.7c8.3-3.8,16.5-7.5,25-11.4c1.1,2.3,2.1,4.4,3.2,6.7c-1.2,0.9-2.3,1.6-3.6,2.5
			c1.3,1.4,2.4,2.6,3.6,3.9c7.9,8.5,15.8,17,23.7,25.6c1.5,1.6,2.9,3.1,5.4,2.3c1,2.2,1.9,4.2,3,6.6c-5.5,2.5-10.6,4.9-16.2,7.4
			c-1.1-2.3-2.1-4.5-3.2-6.8c1-0.7,1.7-1.3,2.8-2c-2.2-2.4-4.3-4.6-6.5-7c-5.5,2.5-10.8,4.9-16.2,7.4c0.5,3.2,0.9,6.1,1.3,9.4
			c1-0.2,1.8-0.4,3-0.7c1,2.1,2,4.3,3.2,6.8c-5.4,2.5-10.6,4.8-16.1,7.3c-1.1-2.4-2-4.4-2.9-6.4C206.1,97.4,206.3,97.3,206.6,97.2z
			 M216.9,74.8c4.5-2,8.2-3.7,12.3-5.6c-4.7-5.1-9.2-10-13.7-14.9c-0.2,0.1-0.5,0.2-0.7,0.3C215.5,61.2,216.1,67.6,216.9,74.8z"/>
		<path class="st0" d="M318.8,538.7c-4.2-0.5-8.1-1.1-12.2-1.6c-0.1-0.7-0.4-1.3-0.2-1.8c1.3-3.6-1-5.9-2.9-8.3
			c-0.4-0.5-1.2-1-1.8-1.1c-3.9-0.6-7.9-1.2-11.9-1.6c-3.6-0.3-7.3,2.8-7.9,6.4c-0.4,2.3-0.6,4.7-0.9,7.1c-0.3,2.8,2.9,6.9,5.7,7.3
			c5.9,0.8,11.9,1.7,17.8,2.4c2,0.2,3.5,0.9,4.6,2.6c1.7,2.6,3.6,5.1,5.6,7.5c1.2,1.5,1.7,3,1.4,4.8c-0.7,4.7-1.2,9.4-2.1,14.1
			c-0.2,1.3-1.1,2.8-2.1,3.7c-2.7,2.4-5.6,4.6-8.5,6.7c-0.9,0.6-2.3,1-3.4,0.9c-8.8-1.1-17.6-2.3-26.3-3.5c-1.1-0.2-2.3-1-3-1.8
			c-1.7-2-2.9-4.4-4.8-6.3c-3.9-4-2.8-8.3-1.5-13.1c4.2,0.6,8.2,1.2,12.4,1.7c0.1,1,0.2,1.8,0.1,2.7c-0.2,4.7,2.5,7.9,7.3,8.5
			c2.5,0.3,5,0.5,7.4,0.9c5.6,0.9,9.1-1.6,9.8-7.2c0.2-1.1,0.3-2.2,0.5-3.3c1-6.3-1.9-9.9-8.3-10.6c-5.2-0.5-10.4-1.4-15.6-2
			c-1.8-0.2-3-1-3.9-2.4c-0.7-1.1-1.5-2-2.3-3c-5.4-7.2-5.4-7.2-3.9-16c0.1-0.5,0.4-1,0.3-1.5c-1-9.1,6.2-12.5,11.9-16.8
			c0.8-0.6,2.1-0.6,3.2-0.5c8.4,1,16.8,2.2,25.2,3.3c2,0.3,3.4,1.2,4.5,2.9c1,1.6,2.2,3,3.3,4.5
			C321.3,530.6,321.3,530.6,318.8,538.7z"/>
		<path class="st0" d="M467.6,546.4c1.1-0.3,2-0.5,3.3-0.9c1.2,2.8,2.3,5.5,3.6,8.6c-6.8,2.8-13.5,5.5-20.6,8.5
			c-1.2-3-2.4-5.8-3.6-8.8c1.3-0.7,2.4-1.3,3.9-2.1c-2.8-3.3-5.4-6.4-8.2-9.7c-6.8,2.8-13.4,5.5-20.4,8.3c0.3,4.2,0.6,8.2,0.9,12.6
			c1.3-0.3,2.5-0.6,4.1-1.1c1.1,2.7,2.3,5.5,3.6,8.7c-7,2.9-13.6,5.6-20.7,8.4c-1.3-3.1-2.4-5.8-3.5-8.6c1.1-0.7,1.9-1.2,3-2
			c-1.1-17.9-2.3-36.1-3.4-54.5c-1.7,0.5-3.1,0.9-4.7,1.4c-1.2-2.9-2.3-5.6-3.6-8.7c10.6-4.3,20.9-8.5,31.8-13
			c1.2,2.9,2.4,5.7,3.7,8.6c-1.6,0.8-3,1.6-5,2.6C443.8,518.7,455.6,532.4,467.6,546.4z M425.2,543.3c5.5-2.2,10.5-4.3,15.9-6.5
			c-5.9-6.8-11.4-13.2-17.4-20.2C424.2,525.9,424.7,534.2,425.2,543.3z"/>
		<path class="st0" d="M94.6,495.9c1.5-3.9,2.8-7.6,4.3-11.4c-5.7-4.7-11.2-9.3-16.8-14c-3.4,2.1-6.7,4.2-10.2,6.4
			c1.1,0.9,2.1,1.7,3.2,2.6c-2.3,2.8-4.1,5-6.3,7.7c-5.7-4.7-11.2-9.3-17.1-14.1c2-2.5,3.9-4.8,5.8-7.2c1.1,0.7,2,1.2,3.1,1.9
			c15.3-9.5,30.6-19,46.2-28.7c-1.1-1.1-2.1-2.2-3.3-3.5c1.9-2.3,3.7-4.6,5.9-7.2c8.9,7.4,17.6,14.6,26.4,21.9
			c-2,2.5-3.8,4.7-5.8,7.2c-1.5-1-2.9-1.9-4.7-3.1c-6.6,17-13.1,33.8-19.6,50.7c0.7,0.8,1.3,1.5,2.2,2.6c-1.8,2.3-3.7,4.6-5.8,7.2
			c-5.8-4.8-11.4-9.4-17.1-14.2c2-2.5,3.9-4.7,6-7.2C92.2,494.3,93.3,495,94.6,495.9z M110.4,453.8c-0.2-0.2-0.4-0.3-0.5-0.5
			c-7.2,4.4-14.4,8.9-21.8,13.5c4.5,3.7,8.6,7.1,13.1,10.8C104.4,469.4,107.4,461.6,110.4,453.8z"/>
		<path class="st0" d="M550.4,405.9c3.6,3.4,6.9,6.5,10.1,9.5c-2.1,2.2-4.1,4.4-6.3,6.6c-1.1-0.9-2.1-1.8-3.2-2.8
			c-2.7,3.1-5.4,6.2-8.4,9.6c11.2,11.5,23.3,23.8,35.5,36.3c1.3-1,2.4-1.9,3.6-2.9c2.1,2.2,4.2,4.3,6.1,6.3
			c-5.1,5.4-10.3,10.8-15.8,16.5c-2.2-2.5-4.2-4.8-6.3-7.2c0.7-0.8,1.5-1.8,2.8-3.2c-12.1-12.3-24.2-24.7-36.4-37.1
			c-3.1,3.3-6,6.4-9,9.7c0.5,0.6,1.4,1.7,2.5,3c-2.2,2.1-4.2,4-6.4,6.1c-3.1-3.3-6.3-6.6-9.7-10.3
			C523.1,432.7,536.8,419.2,550.4,405.9z"/>
		<path class="st0" d="M358.4,589.1c-0.5-3.5-0.9-6.3-1.3-9.3c1.7-0.5,3.1-0.9,4.6-1.3c-2.4-17-4.7-33.9-7.2-51.2
			c-4.2,0.6-8.3,1.2-12.5,1.7c0,1.5,0,3,0,4.9c-3,0.4-5.9,0.8-9.1,1.2c-0.7-4.9-1.3-9.4-2-14.3c19.4-2.7,38.4-5.4,58-8.2
			c0.7,4.9,1.4,9.4,2.1,14.3c-3.2,0.4-6.1,0.8-9.1,1.2c-0.4-1.7-0.7-3-1.1-4.6c-4.3,0.6-8.4,1.2-13.1,1.8c2.4,17.1,4.8,34,7.2,51
			c1.6,0.1,3.1,0.2,4.8,0.3c0.4,2.9,0.9,5.6,1.4,9C373.4,586.8,366.1,587.9,358.4,589.1z"/>
		<path class="st0" d="M123.3,528.4c1.6-3,3-5.5,4.4-8.2c1.5,0.6,2.7,1.1,4.2,1.7c8.1-15.1,16.1-30.3,24.3-45.7
			c-1.2-0.9-2.4-1.7-3.8-2.6c1.4-2.6,2.8-5.2,4.4-8.3c6.5,3.5,12.8,6.8,19.4,10.3c-1.6,2.9-3,5.5-4.4,8.2c-1.4-0.6-2.6-1-4.2-1.7
			c-8,15.1-16.1,30.2-24.4,45.9c6.6,3.5,13,7,19.5,10.5c0.9-1.3,1.6-2.4,2.6-3.9c2.6,1.4,5.2,2.7,8.1,4.3c-2.3,4.3-4.4,8.3-6.7,12.6
			C152.2,543.8,138,536.2,123.3,528.4z"/>
		<path class="st0" d="M414.6,38c-1.2-0.7-2-1.1-3.2-1.8c0.9-2.2,1.9-4.5,3-7c5.7,2.5,11.1,4.9,16.9,7.5c-1,2.4-1.9,4.5-2.9,6.8
			c-1.2-0.3-2.3-0.5-3.7-0.8c-0.1,0.2-0.3,0.5-0.4,0.8c-4.8,10.8-9.7,21.6-14.4,32.5c-1,2.4,0.6,6.1,2.9,7.2c2.1,1,4.3,2,6.5,2.9
			c4.5,1.9,7.5,0.7,9.5-3.7c4.3-9.7,8.6-19.4,12.9-29.1c0.4-0.9,0.7-1.8,1.1-2.8c-1-0.7-1.9-1.3-3.1-2c1-2.2,1.9-4.3,3-6.8
			c5.6,2.5,11.1,4.9,16.8,7.4c-1,2.5-2,4.6-2.9,6.9c-1.3-0.4-2.3-0.7-3.6-1c-2.4,5.5-4.9,10.9-7.3,16.4c-2.7,6.2-5.5,12.3-8.1,18.5
			c-0.8,2-2.1,3.2-4.1,4c-8.4,3.4-8.4,3.4-16.7-0.3c-3.9-1.7-7.7-3.5-11.6-5.1c-2-0.8-2.9-2.2-3.9-4.1c-2.9-5.7-2.7-10.7,0.3-16.5
			C406.2,58.2,410.1,48.2,414.6,38z"/>
		<path class="st0" d="M188.6,560.6c1-2.8,1.9-5.5,2.9-8.5c1.5,0.3,2.8,0.6,4.5,1c5.4-16.4,10.8-32.8,16.2-49.3
			c-1.5-0.7-2.8-1.3-4.3-2c1-2.9,1.9-5.5,2.8-8.5c1.1,0.2,2.1,0.2,3,0.5c11.6,3.8,23.2,7.7,34.8,11.4c1.9,0.6,2.9,1.6,3.7,3.3
			c1.6,3.6,4.4,7.1,4.7,10.9c0.3,3.6-2.2,7.3-3,11.1c-0.8,3.6-2.9,5.9-6.2,7.2c-1.3,0.5-2.4,1.3-4,2.1c1,2.1,1.8,4.3,3,6.3
			c1,1.8,1,3.5,0.4,5.3c-1.5,4.6-2.9,9.3-4.6,13.8c-0.4,1.1-1.5,2.3-2.6,2.9c-3,1.8-6.1,3.4-9.2,4.9c-1.1,0.5-2.7,0.8-3.9,0.5
			c-12.4-4-24.9-8.2-37.3-12.3C189.2,561.2,189.1,560.9,188.6,560.6z M215.8,535.8c-2.5,7.5-4.7,14.5-7.1,21.7
			c4.6,1.5,8.9,2.8,13.1,4.3c1.8,0.7,3.2,0.5,4.9-0.3c2.6-1.2,4.2-2.9,4.8-5.7c0.6-2.4,1.5-4.7,2.2-7.1c0.7-2.3-1.1-7.2-3.3-8
			C225.8,539,221.1,537.5,215.8,535.8z M218.8,526.5c4.9,1.6,9.6,3.2,14.3,4.7c0.7,0.2,1.7,0.1,2.5-0.1c2.9-1.2,5.5-2.7,6.1-6.3
			c0.2-1.5,0.9-2.8,1.3-4.3c0.7-2.4-1.6-7.5-3.8-8.2c-4.7-1.6-9.4-3-14.3-4.6C222.9,514.1,220.9,520.2,218.8,526.5z"/>
		<path class="st0" d="M454.1,94.9c3.1,2.4,5.6,4.4,8.1,6.3c-0.8,1.6-1.9,2.9-2,4.3c-0.2,2.6,0,5.1,2.7,6.8c2.4,1.5,4.6,3.5,6.6,5.1
			c4.7,0.7,6.8-2.4,9.3-5.2c2.3-2.6,1.7-5.2,1.3-8.3c-3.9-3-7.8-6.2-11.9-9.3c-1.4-1.1-2.3-2.2-2.2-4c0-0.2,0-0.5,0-0.7
			c-3.5-9.4,4-14.3,8.4-20.4c0.4-0.6,1.5-0.8,2.4-0.9c0.8-0.2,1.8,0,2.6-0.3c5.4-2.2,9.5,0.1,13.4,3.7c3.3,3,7,5.6,10.6,8.3
			c1.4,1.1,2.2,2.2,2.2,4c0,1.1,0.1,2.3,0.4,3.4c0.9,4.6,0.2,8.7-4.6,11.7c-0.9-0.7-2.3-1.7-3.6-2.7c-1.3-1-2.5-2-4-3.2
			c2-2.6,3.2-5.4,2-9.3c-2.4-1.8-5.1-4.2-8-6.3c-1.9-1.3-5.9-0.6-7.5,1.2c-1.1,1.3-2.2,2.7-3.2,4.1c-2.4,3.2-2,6.7,1.1,9.1
			c3,2.4,6.1,4.7,9.2,7.1c0.7,0.5,1.4,1,2,1.7c1.6,1.8,2.1,12,0.6,14c-2.3,3-4.6,5.9-6.9,8.9c-0.2,0.2-0.3,0.4-0.5,0.6
			c-2.4,2.5-12.3,3.3-15,1.2c-4.8-3.7-9.7-7.5-14.5-11.3c-0.8-0.6-1.8-1.3-1.9-2.1c-0.6-3.6-1.4-7.2-1.1-10.7
			C450.1,99.3,452.4,97.3,454.1,94.9z"/>
		<path class="st0" d="M494.6,530.5c-9.6-14.5-19-28.7-28.6-43.1c-1.4,0.7-2.5,1.3-4.1,2.2c-1.7-2.4-3.3-4.9-5.1-7.4
			c0.8-0.7,1.3-1.3,2-1.8c10.2-6.8,20.4-13.5,30.5-20.3c1.7-1.1,3.3-1.6,5.2-1.1c3.3,0.8,6.6,1.3,9.8,2.2c1.1,0.3,2.3,1,2.9,2
			c8.6,12.8,17.2,25.7,25.7,38.7c0.6,0.9,0.7,2.3,0.7,3.5s-0.5,2.4-0.7,3.6c-1.8,11.5-0.4,8-9.4,14.1c-8.3,5.7-16.8,11.2-25.2,16.8
			c-0.6,0.4-1.3,0.8-2.3,1.4c-1.7-2.5-3.4-4.9-5.2-7.5C492.1,532.6,493.2,531.7,494.6,530.5z M477,479.9
			c9.7,14.6,19.2,28.9,28.8,43.4c5-3.3,9.6-6.4,14-9.3c0.3-1.6,0.8-2.8,0.7-4c-0.1-1.5-0.1-3.3-0.9-4.5
			c-6.8-10.6-13.8-21.1-20.8-31.6c-1.7-2.6-7-3.8-9.6-2.1C485.2,474.4,481.3,477,477,479.9z"/>
		<path class="st0" d="M175.6,78.9c-2.6,2.1-5.1,4.1-7.9,6.4c-2.4-3.2-4.8-6.1-9.8-5.4c-2,1.6-4.6,3.6-7.1,5.6
			c-2.4,1.9-3,5.9-1.1,8.3c6.4,8.1,12.9,16.2,19.5,24.2c1.7,2,5.7,2.3,7.8,0.7c1.6-1.2,3.1-2.5,4.7-3.8c4.3-3.5,4.6-6.2,1.2-10.7
			c-0.4-0.5-0.7-1-1.2-1.8c2.6-2.1,5-4.1,7.9-6.4c2.9,3.6,6,6.2,5.5,11.9c-0.5,5.6-2.7,8.8-6.8,11.8c-3.7,2.7-7.3,5.7-10.8,8.7
			c-1.4,1.2-2.7,1.6-4.5,1.1c-0.7-0.2-1.5-0.5-2.2-0.5c-5.1,0.3-8.4-2.2-11.4-6.2c-6-8-12.4-15.6-18.8-23.3c-1.6-1.9-2-3.9-2.1-6.4
			c-0.5-6.4,2.3-10.5,7.4-13.8c3.5-2.3,6.7-5.2,9.9-8c1.4-1.2,2.9-1.9,4.8-1.3c0.6,0.2,1.2,0.2,1.8,0.3
			C170.6,71.4,170.6,71.4,175.6,78.9z"/>
		<path class="st0" d="M340.3,72.9c0.5-2.8,0.9-5,1.3-7.3c1.2,0,2.3,0,3.7,0c2.3-13.6,4.6-27.2,6.9-41c-1.1-0.5-2.1-1-3.4-1.6
			c0.3-2.3,0.7-4.6,1.1-7.1c3.5,0.5,6.7,0.9,9.8,1.5c6.9,1.2,13.7,2.4,20.6,3.5c1.9,0.3,3.1,1.1,4.2,2.7c5.3,7.7,4.8,7.7,3.8,17.5
			c-0.7,6.9-5.7,9.5-10.2,12.7c-0.9,0.6-2.7,0.3-4,0.1c-5-0.8-10.1-1.6-15.4-2.5c-0.6,2.8-1.1,5.4-1.6,8.1c-0.4,2.6-0.8,5.1-1.2,7.9
			c1.1,0.5,2.1,0.9,3.3,1.4c-0.4,2.3-0.7,4.5-1.1,7.2C352.1,74.9,346.4,73.9,340.3,72.9z M359.7,43.4c4.2,0.8,8.1,1.6,12,2.1
			c1.8,0.2,5.2-2.5,5.6-4.3c0.5-2.6,0.9-5.1,1.1-7.7c0.2-1.8-2.1-5.3-3.7-5.6c-3.9-0.7-7.8-1.3-12-2
			C361.7,31.9,360.8,37.4,359.7,43.4z"/>
		<path class="st0" d="M211.6,555.6c1.9-5.8,3.7-11.1,5.5-16.7c4.1,1.3,7.8,2.4,11.5,3.8c2.2,0.8,3.3,3.9,2.6,6.2
			c-0.7,2.1-1.4,4.3-2.1,6.4c-1.1,3.4-3.7,4.7-7.2,3.6C218.7,557.9,215.4,556.8,211.6,555.6z M214.6,554c3,1,5.5,1.7,7.9,2.7
			c2.3,0.9,3.6-0.2,4.4-2.1c0.8-1.9,1.4-4,2-6c0.5-1.7-0.1-3.2-1.5-3.8c-2.8-1.2-5.7-2-8.8-3C217.2,546.1,215.9,549.8,214.6,554z"/>
		<path class="st0" d="M221.7,524.9c1.6-4.9,3.1-9.5,4.7-14.2c3.5,1.1,6.9,2.1,10.1,3.3c3.8,1.3,5,3.9,3.6,7.8
			c-0.8,2.4-0.9,5.3-3.9,6.3c-1.1,0.4-2.5,0.7-3.5,0.5C229.1,527.5,225.6,526.2,221.7,524.9z M227.8,513.7c-1.1,3.3-2,6.4-3.1,9.7
			c2.9,0.9,5.6,1.8,8.3,2.6c1.7,0.5,3.2,0.1,3.8-1.9c0.8-2.4,2.5-4.8,0.1-7.3c-0.4-0.4-1.1-0.5-1.7-0.7
			C232.9,515.3,230.6,514.6,227.8,513.7z"/>
		<path class="st0" d="M506.4,520.2c-8.8-13.2-17.3-26.1-26.1-39.4c3.5-2.3,6.8-4.7,10.3-6.7c1.9-1.1,5-0.1,6.3,1.8
			c6.9,10.3,13.7,20.5,20.5,30.8c1.2,1.8,1,5.4-0.6,6.5C513.5,515.6,510,517.8,506.4,520.2z M507.1,516.9c2.4-1.6,4.5-3,6.5-4.4
			c2.4-1.7,2.6-2.8,1.1-5.3c-1.5-2.4-3.2-4.8-4.7-7.2c-4.7-7.1-9.3-14.2-14.1-21.2c-2.1-3.1-3.3-3.3-6.4-1.2c-1.8,1.2-3.7,2.5-5.8,4
			C491.5,493.4,499.2,505,507.1,516.9z"/>
	</g>
	<g>
		<path class="st0" d="M295.5,140.3v5h-3.8V144h-2.3v2.5h4.1v3.8c-0.5,0-0.9,0-1.2,0c-0.3,0-0.6,0-0.8,0s-0.5,0-0.8,0s-0.7,0-1.2,0
			v2.5h2.3v-1.2h3.8v5h-11.1v-3.8h1.2V144h-1.2v-3.8h11V140.3z"/>
		<path class="st0" d="M299.6,140.3h5.1l2.4,2.3v2.6h-3.8V144H301v2.5h3.5l2.5,2.6v5.2l-2.4,2.2h-5.1l-2.5-2v-3h3.8v1.2h2.3v-2.4h-3
			l-3.1-2.6v-5.1L299.6,140.3z"/>
		<path class="st0" d="M308.4,140.2h11.1v5.7h-2.8V144h-0.9v8.7h1.2v3.8h-6.1v-3.8h1.2V144h-0.8v1.9h-2.8v-5.7H308.4z"/>
		<path class="st0" d="M322.5,156.5h-3.8v-3.8h3.8V156.5z"/>
		<path class="st0" d="M336.1,152.7v3.8H330v-3.8h1.2V144H330v-3.8h5v12.5H336.1z"/>
		<path class="st0" d="M341.4,151.6v1.2h2.3v-2.4H340l-2.5-2v-5.8l2.4-2.2h5.1l2.5,2v11.8l-2.5,2.4h-5.1l-2.4-2.4v-2.6H341.4z
			 M343.7,146.5v-2.4h-2.3v2.4H343.7z"/>
		<path class="st0" d="M352.9,151.6v1.2h2.3v-2.4h-3.6l-2.5-2v-5.8l2.4-2.2h5.1l2.5,2v11.8l-2.5,2.4h-5.1l-2.4-2.4v-2.6H352.9z
			 M355.2,146.5v-2.4h-2.3v2.4H355.2z"/>
		<path class="st0" d="M370.5,142.6v11.7l-2.4,2.2H363l-2.5-2v-11.8l2.5-2.4h5.1L370.5,142.6z M366.7,144h-2.3v8.7h2.3V144z"/>
	</g>
</g>
</svg>
